<svg width="360" height="360" viewBox="0 0 360 360" fill="none" xmlns="http://www.w3.org/2000/svg">
<path d="M298.709 243.345C281.663 232.743 270.203 212.594 247.781 202.922L248.126 202.535C259.757 204.851 269.977 198.567 272.222 189.429C278.092 187.616 280.879 183.485 283.676 178.552C290.988 165.765 296.895 165.966 301.141 157.416C304.038 151.573 303.947 144.668 301.001 137.939C301.022 137.876 301.043 137.82 301.064 137.756L303.195 137.616L303.391 136.561L310.788 137.229C316.702 148.774 331.53 149.252 335.538 135.267C337.95 126.893 340.376 114.609 333.584 104.625C328.521 97.1775 317.121 91.3064 308.89 87.75C308.572 28.857 275.295 8.45578 272.102 4.21875C267.557 12.498 236.123 46.7937 246.094 92.475C240.779 95.8175 235.799 99.665 231.223 103.964C221.207 113.577 217.479 124.727 226.99 144.366C220.086 133.7 211.366 134.492 208.132 133.284C206.309 130.852 201.727 118.407 185.02 118.069C184.521 118.062 183.853 118.055 183.607 118.027C181.328 116.77 175.403 108.985 164.159 111.143C151.029 107.751 136.539 107.065 122.906 109.99C119.576 107.585 115.712 106.024 111.646 105.442C107.58 104.86 103.433 105.275 99.5625 106.65C19.0863 135.422 23.6496 133.282 20.0672 135.387C5.65315 141.484 0.85221 165.725 7.88205 178.566L97.6711 342.661C100.676 348.123 105.589 352.285 111.471 354.352C117.353 356.418 123.79 356.244 129.551 353.862L214.39 318.825C218.682 316.932 222.413 313.966 225.225 310.212C237.732 309.465 250.12 307.364 262.174 303.947L311.498 339.792L316.723 335.939C348.965 312.153 354.261 278.742 355.296 276.448C349.928 273.362 335.874 265.726 298.709 243.345ZM188.873 210.023L138.016 130.338C146.556 130.023 155.083 131.25 163.188 133.959C163.661 134.922 163.844 135.436 164.102 136.048C169.945 150.334 175.071 152.319 183.987 153.956C184.658 156.236 185.237 159.628 187.348 162.921C193.141 171.991 203.902 171.621 209.341 173.299C216.465 175.534 222.349 184.937 233.796 189.211C234.063 193.774 236.988 197.93 241.805 200.384L241.664 200.707C225.004 195.802 213.849 200.933 188.873 210.023Z" fill="#E79F79"/>
<path d="M119.123 131.122L222.258 281.713C227.694 290.232 220.392 306.754 211.008 310.63L126.17 345.664C122.428 347.215 118.246 347.332 114.423 345.993C110.6 344.654 107.404 341.952 105.448 338.406L15.6564 174.309C10.8611 165.545 14.5504 146.72 24.0152 143.355L99.7284 124.511C103.233 123.261 107.057 123.234 110.579 124.434C114.1 125.634 117.112 127.991 119.123 131.122Z" fill="#A97155"/>
<path d="M121.93 121.618L221.369 277.412C222.644 279.414 223.464 281.673 223.77 284.027C224.076 286.382 223.862 288.775 223.141 291.037C222.42 293.299 221.211 295.376 219.6 297.119C217.988 298.863 216.013 300.231 213.814 301.127L128.976 336.164C125.234 337.714 121.052 337.831 117.229 336.492C113.406 335.153 110.211 332.452 108.254 328.906L18.4628 164.805C17.3373 162.74 16.6741 160.455 16.5195 158.109C16.3648 155.762 16.7223 153.41 17.5672 151.216C18.412 149.021 19.7241 147.037 21.4123 145.4C23.1005 143.763 25.1245 142.513 27.344 141.736L102.535 115.006C106.039 113.756 109.864 113.729 113.386 114.929C116.907 116.13 119.919 118.488 121.93 121.618Z" fill="#402E32"/>
<path d="M206.226 296.061L129.515 327.74C126.131 329.143 122.349 329.249 118.892 328.037C115.434 326.826 112.545 324.381 110.778 321.173L88.5458 280.709L68.5067 244.234L26.1631 167.171C25.1438 165.304 24.5428 163.238 24.4019 161.115C24.2609 158.993 24.5834 156.865 25.3469 154.879C26.1104 152.894 27.2967 151.098 28.8234 149.617C30.3502 148.136 32.1809 147.004 34.1886 146.301L39.358 144.473L40.0203 146.028C40.7984 147.855 42.2238 149.33 44.023 150.171C45.8222 151.012 47.8685 151.158 49.7691 150.583L92.8594 137.665C93.9763 137.337 95.0073 136.767 95.8797 135.996C96.752 135.225 97.4443 134.272 97.9076 133.204C98.3709 132.136 98.5939 130.98 98.5608 129.816C98.5276 128.652 98.2392 127.51 97.7159 126.47L96.5466 124.145L102.162 122.157C105.332 121.025 108.791 121 111.977 122.085C115.163 123.17 117.887 125.302 119.707 128.133L123.949 134.785L145.41 168.476L213.047 274.624C214.199 276.434 214.941 278.474 215.218 280.602C215.495 282.73 215.301 284.893 214.651 286.938C214 288.982 212.909 290.859 211.453 292.436C209.997 294.012 208.213 295.25 206.226 296.061Z" fill="#FFF7F2"/>
<path d="M145.411 168.476L88.5474 280.709L68.5083 244.234L123.95 134.784L145.411 168.476Z" fill="white"/>
<path d="M118.986 256.359L146.166 244.635C148.357 243.69 150.831 243.639 153.059 244.495C155.288 245.35 157.093 247.042 158.09 249.211L169.701 274.479C170.216 275.6 170.499 276.813 170.532 278.046C170.566 279.279 170.349 280.506 169.896 281.653C169.443 282.801 168.762 283.844 167.895 284.721C167.027 285.598 165.992 286.291 164.85 286.757L138.613 297.463C136.501 298.324 134.143 298.365 132.002 297.577C129.862 296.789 128.093 295.229 127.044 293.203L114.49 268.952C113.913 267.838 113.572 266.618 113.488 265.366C113.404 264.115 113.578 262.86 113.999 261.678C114.421 260.497 115.081 259.415 115.939 258.5C116.797 257.585 117.834 256.856 118.986 256.359Z" fill="#7AD001"/>
<path d="M138.615 270C138.34 270 138.068 269.935 137.822 269.811C137.576 269.687 137.363 269.507 137.199 269.285C137.036 269.064 136.927 268.807 136.881 268.535C136.835 268.264 136.854 267.985 136.935 267.722C138.458 262.8 142.342 260.905 145.463 259.384C156.867 253.83 148.282 235.311 140.77 229.778C128.823 220.978 99.6893 224.253 84.3211 201.495C71.1522 181.994 78.8922 151.265 95.5479 134.546C104.328 125.734 116.268 120.054 130.077 118.119C143.182 116.402 156.508 117.857 168.934 122.362C169.157 122.436 169.363 122.553 169.54 122.708C169.717 122.863 169.861 123.051 169.964 123.263C170.066 123.474 170.126 123.704 170.138 123.939C170.151 124.173 170.116 124.408 170.036 124.629C169.956 124.85 169.832 125.053 169.673 125.225C169.513 125.398 169.32 125.537 169.106 125.633C168.892 125.73 168.661 125.783 168.426 125.789C168.191 125.794 167.957 125.753 167.738 125.667C146.389 117.932 116.559 118.441 98.0411 137.028C82.4922 152.637 75.0918 181.54 87.2369 199.526C101.565 220.744 130.227 217.642 142.854 226.948C151.445 233.276 162.221 255.128 147.003 262.545C144.104 263.959 141.366 265.293 140.293 268.762C140.182 269.121 139.959 269.434 139.657 269.657C139.355 269.879 138.99 270 138.615 270Z" fill="#B2ACA3"/>
<path d="M262.95 92.707C253.95 97.8996 244.856 103.164 237.36 110.355C230.238 117.19 227.07 124.246 235.01 140.59C237.541 145.801 241.147 144.629 242.864 140.597C244.733 136.204 244.42 134.945 249.262 133.65L277.387 126.127C275.665 113.555 270.5 101.479 262.95 92.707Z" fill="#FFB020"/>
<path d="M291.305 90.4219C300.944 93.9565 320.428 101.039 326.257 109.612C330.757 116.233 329.241 125.125 327.025 132.815C325.421 138.384 321.669 137.846 319.291 134.166C316.698 130.158 316.79 128.865 311.798 128.417L282.801 125.815C282.341 113.137 285.363 100.355 291.305 90.4219Z" fill="#FFB020"/>
<path d="M278.813 137.163C274.362 139.702 269.399 142.991 268.891 148.089C268.616 150.841 269.713 153.864 268.322 156.255C265.975 160.291 259.509 158.434 255.549 160.91C252.405 162.879 250.941 167.539 247.258 167.964C243.422 168.405 240.971 163.86 237.362 162.486C233.511 161.02 228.51 163.259 225.389 160.565C222.355 157.948 221.46 147.265 213.752 143.854C210.143 142.257 205.658 142.708 202.581 140.236C200.465 138.535 199.505 135.818 197.985 133.568C196.706 131.706 195.03 130.151 193.077 129.015C191.124 127.88 188.943 127.192 186.692 127.002C184.835 126.861 182.931 127.058 181.137 126.551C177.75 125.592 175.518 122.364 172.393 120.744C170.658 119.878 168.714 119.52 166.785 119.711C164.856 119.902 163.02 120.634 161.489 121.823C166.634 121.918 170.016 127.145 171.978 131.903C173.94 136.66 175.956 142.14 180.717 144.094C183.705 145.319 187.381 144.912 189.879 146.959C193.075 149.578 192.585 154.664 194.811 158.145C198.215 163.467 205.952 162.955 211.982 164.839C218.592 166.904 223.554 172.233 229.055 176.441C234.555 180.649 241.948 183.911 248.268 181.081C251.828 179.486 256.869 174.012 261.47 176.685C263.274 177.733 264.247 179.908 266.129 180.806C270.815 183.045 274.145 177.361 275.981 174.148C283.822 160.445 290.185 159.543 293.195 153.476C296.279 147.257 292.991 139.615 288.292 134.575C285.097 135.034 281.748 135.492 278.813 137.163Z" fill="#FFF7F2"/>
<path d="M263.705 186.903C261.563 185.808 259.078 185.595 256.781 186.31C254.325 187.087 249.399 191.002 242.672 188.01C242.312 190.119 244.36 191.853 246.317 192.721C254.611 196.391 262.693 192.516 263.705 186.903Z" fill="#FFF7F2"/>
<path d="M270.485 128.271L273.973 137.462C274.106 137.959 274.39 138.402 274.786 138.732C275.152 138.932 275.563 139.035 275.981 139.031C280.571 139.367 285.182 139.308 289.762 138.855C290.249 138.906 290.737 138.771 291.128 138.478C291.519 138.184 291.785 137.753 291.872 137.272C293.19 133.564 294.241 129.767 295.018 125.909C287.469 126.526 279.888 126.707 270.485 128.271Z" fill="#B2ACA3"/>
<path d="M295.734 129.218C286.251 129.832 278.274 130.53 270.357 131.591C254.073 96.6459 245.19 73.3022 261.621 38.4089C265.067 31.2255 269.072 24.3237 273.599 17.7673C278.679 22.565 283.049 28.0628 286.576 34.0945C286.817 34.5045 287.059 34.9144 287.287 35.3363C303.507 63.8079 301.673 97.1613 295.734 129.218Z" fill="#A97155"/>
<path d="M287.287 35.3363C282.673 34.1789 276.587 34.3723 273.189 34.9383C269.195 35.5711 265.304 36.7385 261.621 38.4089C265.067 31.2255 269.072 24.3237 273.599 17.7673C278.679 22.565 283.049 28.0628 286.576 34.0945C286.818 34.5045 287.059 34.9144 287.287 35.3363Z" fill="#402E32"/>
<path d="M268.119 51.0117C264.004 56.2767 264.196 65.7316 266.413 72.1238C269.904 82.1883 284.311 80.2097 287.892 71.1225C290.102 65.513 289.029 56.667 285.476 51.8245C281.438 46.3233 272.509 45.3952 268.119 51.0117Z" fill="white"/>
<path d="M178.62 244.259C174.907 250.658 172.273 257.625 170.825 264.88C170.023 268.902 169.661 273.35 171.791 276.856C174.263 280.926 179.314 282.518 183.988 283.438C194.593 285.52 205.473 285.787 216.167 284.228C224.129 283.065 237.502 279.709 239.748 272.095C240.962 267.979 238.743 263.657 236.149 260.235C223.318 243.321 198.681 236.561 178.62 244.259Z" fill="#ED6C4D"/>
<path d="M311.462 328.807L263.844 294.199C241.555 301.151 216.766 303.589 192.838 300.042C185.954 299.021 183.065 296.827 183.446 286.942C183.431 286.048 183.564 285.158 183.841 284.309C185.03 281.24 189.084 280.817 192.357 280.478C201.323 279.549 216.032 273.681 216.809 264.72C217.313 258.916 211.781 254.206 206.164 252.659C200.547 251.112 194.551 251.62 188.867 250.349C183.143 253.526 177.595 257.01 172.246 260.785C166.617 264.615 160.926 268.481 154.565 270.915C148.205 273.35 141.026 274.258 134.585 272.052C130.999 270.824 127.313 267.75 127.944 264.016C128.634 259.928 133.607 258.5 137.555 257.237C152.843 252.347 163.235 238.526 172.591 225.485C216.527 209.039 221.075 208.027 227.346 207.72C255.604 206.336 272.737 237.65 294.08 250.907C313.224 262.431 329.728 272.175 344.895 280.749C339.529 299.968 327.228 317.172 311.462 328.807Z" fill="#FFAD92"/>
</svg>
