<svg width="350" height="352" viewBox="0 0 350 352" fill="none" xmlns="http://www.w3.org/2000/svg">
<path d="M339.862 272.694C334.919 269.259 329.711 266.221 324.288 263.609C322.812 257.814 319.831 252.512 315.646 248.24C311.461 243.967 306.222 240.877 300.459 239.281C300.459 239.281 291.916 236.089 282.775 236.469C294.869 235.688 305.134 225.036 304.41 207.226C312.749 198.5 318.051 183.734 315.372 165.453C313.558 153.057 307.377 145.062 293.519 141.589C284.891 139.409 275.308 139.367 266.856 142.461C277.312 130.543 288.477 114.336 299.685 91.4773C306.927 76.7117 316.012 55.175 318.135 36.4297C318.409 33.9208 318.114 31.3824 317.272 29.0034C316.429 26.6244 315.061 24.466 313.269 22.6888C311.477 20.9117 309.308 19.5616 306.922 18.7389C304.536 17.9163 301.995 17.6424 299.488 17.9375C284.014 19.7739 268.677 22.6206 253.574 26.4594C232.799 31.7046 212.564 38.899 193.141 47.9469C213.869 30.882 204.792 9.40156 182.524 9.275H181.687C173.835 9.28588 165.997 9.93726 158.252 11.2227C134.289 -10.7992 97.8251 2.77109 90.9977 30.4531C65.6852 39.2492 62.7321 48.7344 61.1149 50.1406C58.1477 54.7953 56.9524 59.7945 57.5782 64.4422C50.7612 64.5594 44.1787 66.9499 38.8751 71.2344C13.9212 91.1187 22.3094 138.931 60.3907 135.43C40.0493 141.223 6.15164 158.169 10.0962 178.489C11.8751 187.707 20.9173 194.38 34.0024 192.439C38.6009 191.736 43.143 190.857 47.5587 189.809C46.7712 191.448 45.9907 193.1 45.2384 194.731C32.6134 199.742 20.5225 206.005 9.14695 213.427C-3.5093 221.71 -0.696799 234.69 6.14461 248.232C14.7579 265.353 24.0532 281.279 39.9438 292.198C47.9524 297.711 60.1938 303.392 69.6509 301.1C77.4977 299.195 81.9626 293.042 83.8751 290.412C87.7689 285.034 91.3491 279.434 94.5977 273.643C92.0524 298.618 114.721 308.131 130.795 290.244C140.934 278.959 148.9 268.749 155.165 258.884C156.571 260.759 158.066 262.59 159.651 264.376C159.588 268.869 159.574 273.334 159.559 277.693C159.51 293.731 159.454 308.877 157.134 323.783C155.826 332.22 158.702 338.696 166.401 342.936C188.458 355.093 217.026 354.805 239.125 341.382C246.353 336.98 249.109 331.187 248.547 323.101C247.612 309.896 246.649 296.459 245.172 282.98C251.069 286.597 257.302 289.634 263.784 292.051C272.924 303.652 288.21 308.328 302.969 304.004C314.922 306.992 326.734 309.629 338.006 305.115C351.695 299.588 354.55 282.875 339.862 272.694Z" fill="#E79F79"/>
<path d="M150.482 215.016C153.306 234.598 163.446 252.381 178.86 264.784C184.921 243.388 181.279 220.599 177.601 198.69C177.13 195.877 175.865 194.858 172.736 196.341C163.834 200.546 157.119 208.203 150.482 215.016Z" fill="#FFAD92"/>
<path d="M272.242 204.603C263.861 201.587 258.827 192.72 257.322 183.945C255.817 175.17 257.54 165.066 264.157 158.963C274.626 149.316 294.855 152.769 299.854 159.561C303.721 164.827 305.479 183.502 297.358 195.357C291.867 203.422 281.425 207.915 272.242 204.603Z" fill="#FFB020"/>
<path d="M275.09 208.182C275.928 199.785 275.435 191.309 273.627 183.066C268.951 183.327 266.42 180.535 266.477 177.716C266.554 173.694 272.65 171.05 274.675 178.496C274.879 179.234 275.069 179.973 275.251 180.718C276.678 180.437 278.035 179.878 279.245 179.073C276.686 174.629 279.871 168.905 282.655 169.644C284.976 170.263 285.651 175.543 282.149 179.326C283.035 180.099 284.132 180.589 285.299 180.732C285.609 179.215 286.185 177.766 287.001 176.45C288.407 174.418 290.277 174.341 291.409 174.903C294.791 176.563 293.399 182.434 286.923 182.877C284.68 191.841 283.506 200.659 276.974 208.948C276.831 209.126 276.634 209.254 276.413 209.311C276.192 209.368 275.958 209.353 275.747 209.267C275.535 209.181 275.357 209.029 275.239 208.833C275.12 208.638 275.068 208.409 275.09 208.182ZM275.723 182.771C277.275 189.926 277.867 197.257 277.48 204.568C281.805 197.6 282.986 190.055 284.772 182.806C283.19 182.565 281.719 181.849 280.553 180.753C279.095 181.744 277.452 182.43 275.723 182.771ZM269.641 179.959C270.649 180.717 271.897 181.087 273.156 180.999C273.002 180.352 272.833 179.713 272.657 179.073C270.927 172.745 266.638 177.406 269.641 179.938V179.959ZM287.5 180.704C288.906 180.458 290.594 179.67 291.016 178.377C291.494 176.703 289.209 174.791 287.5 180.683V180.704ZM282.1 171.725C281.052 172.112 279.709 175.142 280.855 177.631C282.733 175.346 282.761 172.484 282.1 171.704V171.725Z" fill="#FFF7F2"/>
<path d="M72.8433 84.5937C69.0394 81.5773 65.0034 78.4554 60.187 77.6468C44.7183 75.0383 33.7354 95.5203 38.8261 110.061C40.7456 115.531 45.1542 120.242 50.6808 121.88C55.9331 123.427 63.8714 122.436 68.9058 119.968C82.9401 113.098 84.494 93.8187 72.8433 84.5937Z" fill="#7AD001"/>
<path d="M306.267 257.274C299.608 250.531 288.274 248.893 280.082 253.667C274.788 256.74 271.181 262.421 270.14 268.327C267.834 280.66 277.565 291.263 289.265 292.452C296.296 293.155 304.938 290.82 309.079 285.23C314.289 278.037 313.91 265.016 306.267 257.274Z" fill="#C72F55"/>
<path d="M332.43 283.367C326.216 279.067 319.551 275.46 312.553 272.609C312.635 275.148 312.288 277.682 311.526 280.105C314.099 281.23 316.413 282.116 316.209 283.655C315.414 290.349 273.606 275.921 267.278 273.376C266.092 273.023 265.03 272.343 264.213 271.414C263.51 270.423 263.439 268.812 264.473 268.137C265.506 267.462 267.869 267.905 270.14 268.327C270.668 265.346 271.807 262.507 273.487 259.988C269.884 258.526 266.162 257.373 262.363 256.543C239.287 251.937 225.098 267.294 285.229 285.491C314.859 294.455 325.223 296.22 333.147 293.049C338.533 290.87 337.07 286.595 332.43 283.367Z" fill="#FF605B"/>
<path d="M153.513 25.3766C149.251 19.3686 142.877 15.1922 135.667 13.6836C123.714 11.3914 110.474 17.9024 105.264 28.9484C99.5618 40.9789 104.181 57.643 117.056 63.9992C140.42 75.6781 171.154 49.4375 153.513 25.3766Z" fill="#A97155"/>
<path d="M182.439 22.2969C172.713 22.2618 163.013 23.2946 153.513 25.3766C155.453 28.0069 156.932 30.948 157.886 34.0742C161.437 33.3711 164.538 32.668 165.445 34.4258C167.266 37.8641 156.761 42.5188 153.203 44.0234C138.003 50.5244 122.232 55.6016 106.094 59.1899C104.547 59.5414 102.895 59.8578 101.404 59.3375C99.9133 58.8172 98.6899 57.1367 99.2946 55.6742C99.7717 54.7763 100.551 54.0763 101.495 53.6984C102.796 52.9953 104.118 52.3414 105.454 51.7438C103.842 48.2088 102.98 44.3783 102.923 40.4938C69.025 48.643 62.0711 67.6273 80.1414 68.7383C98.4227 69.8914 116.437 64.5617 133.973 58.9789C171.941 46.8992 184.211 41.2109 190.307 32.0703C194.378 25.8125 189.716 22.3391 182.439 22.2969Z" fill="#402E32"/>
<path d="M305.205 34.9883C302.392 59.8789 283.9 96.793 269.859 117.254C252.07 143.234 238.647 150.568 216.217 172.66C200.193 188.452 182.875 203.232 164.341 216.008C141.588 231.723 116.971 244.442 90.5618 252.458C82.497 249.519 77.0759 242.101 72.154 235.091C65.4532 225.528 58.6681 215.769 55.061 204.659C66.1288 179.372 80.9253 155.887 98.9571 134.987C115.78 115.412 135.123 98.152 156.48 83.6586C198.203 55.3367 248.125 37.1047 301.028 30.8187C301.592 30.7551 302.162 30.8191 302.697 31.006C303.232 31.1929 303.719 31.498 304.12 31.8985C304.521 32.299 304.827 32.7848 305.015 33.3196C305.202 33.8545 305.268 34.4248 305.205 34.9883Z" fill="#A97155"/>
<path d="M98.746 143.966C56.1718 141.73 21.1069 166.859 22.8788 176C23.5819 179.6 28.5038 180.085 32.1179 179.551C45.7936 177.533 59.0264 173.258 72.196 169.004C81.1889 166.093 90.8288 162.718 96.1936 154.941C97.348 153.384 98.1701 151.606 98.6092 149.718C99.0482 147.83 99.0948 145.872 98.746 143.966Z" fill="#FFF7F2"/>
<path d="M160.051 214.334C154.883 240.041 138.655 262.077 121.133 281.574C115.811 287.502 109.3 288.866 107.774 281.145C106.368 273.791 109.419 266.38 112.562 259.595C117.203 249.575 122.258 239.577 129.599 231.336C137.503 222.348 148.253 216.346 160.051 214.334Z" fill="#FFF7F2"/>
<path d="M64.012 201.882C47.1357 207.123 31.0683 214.681 16.2698 224.34C14.0269 225.802 13.2042 226.766 13.394 229.613C13.7034 234.141 15.7355 238.353 17.7815 242.403C27.2737 261.268 39.1847 281.708 60.7073 287.966C66.6979 289.716 69.3909 288.261 73.3636 282.791C82.2941 270.474 89.4097 256.939 94.4925 242.6C67.7175 209.905 64.898 207.458 64.012 201.882Z" fill="#EAE5DB"/>
<path d="M16.5929 240.28C32.5254 228.439 49.077 217.455 66.1773 207.373C66.338 207.289 66.525 207.271 66.6991 207.321C66.8733 207.372 67.0212 207.488 67.112 207.645C67.2027 207.802 67.2293 207.988 67.1862 208.164C67.143 208.34 67.0335 208.493 66.8804 208.59C49.8263 218.638 33.3193 229.587 17.4297 241.391C17.3588 241.463 17.2731 241.519 17.1787 241.555C17.0842 241.591 16.983 241.606 16.8821 241.599C16.7812 241.593 16.6829 241.564 16.5939 241.516C16.505 241.468 16.4274 241.401 16.3666 241.321C16.3057 241.24 16.263 241.147 16.2414 241.048C16.2197 240.949 16.2197 240.847 16.2412 240.748C16.2626 240.649 16.3052 240.556 16.3659 240.476C16.4266 240.395 16.504 240.328 16.5929 240.28Z" fill="#402E32"/>
<path d="M27.4842 260.178C42.742 246.038 58.5342 231.891 74.4108 218.117C74.5524 218.002 74.7335 217.946 74.9155 217.962C75.0976 217.977 75.2663 218.063 75.3861 218.201C75.5058 218.339 75.5671 218.519 75.557 218.701C75.5469 218.884 75.4662 219.055 75.3319 219.179C59.4694 232.939 43.6913 247.079 28.4405 261.212C28.3034 261.339 28.1216 261.406 27.935 261.398C27.7484 261.391 27.5724 261.31 27.4456 261.173C27.3187 261.036 27.2516 260.854 27.2588 260.668C27.2661 260.481 27.3472 260.305 27.4842 260.178Z" fill="#402E32"/>
<path d="M46.7498 281.096C59.0756 264.186 72.0623 247.522 85.274 231.561C85.3934 231.417 85.5649 231.327 85.7508 231.31C85.9367 231.293 86.1219 231.35 86.2654 231.47C86.409 231.589 86.4993 231.76 86.5165 231.946C86.5336 232.132 86.4762 232.317 86.3568 232.461C73.1381 248.394 60.1936 265.037 47.8889 281.926C47.7789 282.077 47.6133 282.178 47.4287 282.207C47.2441 282.236 47.0556 282.19 46.9045 282.08C46.7535 281.97 46.6523 281.805 46.6233 281.62C46.5943 281.436 46.6398 281.247 46.7498 281.096Z" fill="#402E32"/>
<path d="M164.341 216.036C141.588 231.751 116.971 244.47 90.5618 252.486C82.497 249.547 77.0759 242.129 72.154 235.119C65.4532 225.556 58.6681 215.797 55.061 204.687C66.1288 179.4 80.9253 155.915 98.9571 135.015C119.277 148.177 134.964 168.111 149.076 188.087C155.221 196.791 161.317 205.89 164.341 216.036Z" fill="#FF605B"/>
<path d="M305.204 34.9883C303.538 49.7117 296.422 68.5625 288.006 85.7047C285.053 74.9328 280.897 64.4492 274.422 55.4C269.756 48.7651 263.745 43.1877 256.78 39.0312C271.334 35.3305 286.115 32.5872 301.028 30.8187C301.591 30.7551 302.162 30.8191 302.697 31.006C303.232 31.1929 303.718 31.498 304.12 31.8985C304.521 32.299 304.827 32.7848 305.014 33.3196C305.202 33.8545 305.267 34.4248 305.204 34.9883Z" fill="#FF605B"/>
<path d="M231.897 116.502C247.981 116.502 261.02 103.463 261.02 87.3781C261.02 71.2937 247.981 58.2547 231.897 58.2547C215.812 58.2547 202.773 71.2937 202.773 87.3781C202.773 103.463 215.812 116.502 231.897 116.502Z" fill="#EAE5DB"/>
<path d="M231.897 110.87C245.189 110.87 255.965 100.352 255.965 87.3781C255.965 74.4042 245.189 63.8867 231.897 63.8867C218.605 63.8867 207.829 74.4042 207.829 87.3781C207.829 100.352 218.605 110.87 231.897 110.87Z" fill="#FFF7F2"/>
<path d="M49.3095 103.62C46.9962 103.395 47.3197 99.8937 49.64 100.105C52.5861 100.386 55.5814 100.534 58.5486 100.548L57.0017 85.2969C56.7697 82.9836 60.2712 82.632 60.5173 84.9453C62.3173 102.784 62.5704 102.277 61.6775 103.318C61.4374 103.58 61.1434 103.787 60.8156 103.924C60.4878 104.061 60.1341 104.125 59.779 104.112C56.283 104.13 52.7884 103.966 49.3095 103.62Z" fill="#FFF7F2"/>
<path d="M172.771 259.489C173.637 223.572 168.297 187.776 156.986 153.676C156.001 150.716 154.961 147.573 155.664 144.535C156.367 141.498 159.601 138.819 162.519 139.916C169.797 142.665 178.234 169.524 182.115 178.475C185.35 157.831 175.028 136.991 176.723 129.102C177.341 126.198 179.626 123.42 182.587 123.231C186.805 122.956 189.54 127.534 191.144 131.457C197.003 145.779 201.852 160.494 205.656 175.494C206.577 151.588 201.402 142.517 202.738 135.078C203.997 128.047 210.43 125.839 212.287 127.808C213.763 129.383 219.114 154.576 221.132 174.966C220.97 165.186 214.255 143.164 223.206 143.164C226.398 147.523 227.938 153.099 228.585 157.585C232.902 187.609 233.113 217.484 226.328 247.016C231.911 272.328 233.76 298.238 235.595 324.071C235.82 327.256 235.448 328.459 232.389 330.315C214.579 341.143 190.961 341.649 172.701 331.588C169.888 330.041 169.537 328.909 170.015 325.836C173.411 303.969 172.23 281.799 172.771 259.489Z" fill="#FFAD92"/>
<path d="M180.948 200.258C180.498 200.176 180.097 199.921 179.832 199.548C179.566 199.176 179.456 198.714 179.526 198.261C179.595 197.809 179.839 197.401 180.204 197.125C180.57 196.85 181.028 196.727 181.483 196.784C195.174 198.872 209.116 198.691 222.749 196.25C225.041 195.842 225.66 199.302 223.368 199.709C209.354 202.221 195.022 202.406 180.948 200.258Z" fill="#ED6C4D"/>
<path d="M108.386 186.835C90.3702 196.885 74.4801 210.342 61.6003 226.456C59.9479 228.523 58.2815 231.076 58.9846 233.656C59.6878 236.082 62.4088 237.446 64.926 237.369C67.4432 237.291 69.7776 236.124 72.0065 234.95C93.4448 223.637 114.194 209.391 127.364 189.043C129.36 185.956 131.224 182.581 131.35 178.911C123.297 180.212 115.528 182.892 108.386 186.835Z" fill="#FFF7F2"/>
<path d="M270.962 203.021C271.377 208.808 273.17 220.923 279.217 223.145C282.276 224.263 285.862 222.877 287.999 220.423C293.237 214.419 291.135 202.142 290.263 201.439C290.081 201.34 289.878 201.285 289.67 201.278C289.463 201.27 289.257 201.311 289.068 201.397C283.199 203.128 277.046 203.68 270.962 203.021Z" fill="#402E32"/>
</svg>
