<svg width="360" height="360" viewBox="0 0 360 360" fill="none" xmlns="http://www.w3.org/2000/svg">
<path d="M344.862 276.694C339.919 273.259 334.711 270.221 329.288 267.609C327.812 261.814 324.831 256.512 320.646 252.24C316.461 247.967 311.222 244.877 305.459 243.281C305.459 243.281 296.916 240.089 287.775 240.469C299.869 239.688 310.134 229.036 309.41 211.226C317.749 202.5 323.051 187.734 320.372 169.453C318.558 157.057 312.377 149.062 298.519 145.589C289.891 143.409 280.308 143.367 271.856 146.461C282.312 134.543 293.477 118.336 304.685 95.4773C311.927 80.7117 321.012 59.175 323.135 40.4297C323.409 37.9208 323.114 35.3824 322.272 33.0034C321.429 30.6244 320.061 28.466 318.269 26.6888C316.477 24.9117 314.308 23.5616 311.922 22.7389C309.536 21.9163 306.995 21.6424 304.488 21.9375C289.014 23.7739 273.677 26.6206 258.574 30.4594C237.799 35.7046 217.564 42.899 198.141 51.9469C218.869 34.882 209.791 13.4016 187.524 13.275H186.687C178.835 13.2859 170.997 13.9373 163.252 15.2227C139.289 -6.79922 102.825 6.77109 95.9977 34.4531C70.6852 43.2492 67.7321 52.7344 66.1149 54.1406C63.1477 58.7953 61.9524 63.7945 62.5782 68.4422C55.7612 68.5594 49.1787 70.9499 43.8751 75.2344C18.9212 95.1187 27.3094 142.931 65.3907 139.43C45.0493 145.223 11.1516 162.169 15.0962 182.489C16.8751 191.707 25.9173 198.38 39.0024 196.439C43.6009 195.736 48.143 194.857 52.5587 193.809C51.7712 195.448 50.9907 197.1 50.2384 198.731C37.6134 203.742 25.5225 210.005 14.147 217.427C1.4907 225.71 4.3032 238.69 11.1446 252.232C19.7579 269.353 29.0532 285.279 44.9438 296.198C52.9524 301.711 65.1938 307.392 74.6509 305.1C82.4977 303.195 86.9626 297.042 88.8751 294.412C92.7689 289.034 96.3491 283.434 99.5977 277.643C97.0524 302.618 119.721 312.131 135.795 294.244C145.934 282.959 153.9 272.749 160.165 262.884C161.571 264.759 163.066 266.59 164.651 268.376C164.588 272.869 164.574 277.334 164.559 281.693C164.51 297.731 164.454 312.877 162.134 327.783C160.826 336.22 163.702 342.696 171.401 346.936C193.458 359.093 222.026 358.805 244.125 345.382C251.353 340.98 254.109 335.187 253.547 327.101C252.612 313.896 251.649 300.459 250.172 286.98C256.069 290.597 262.302 293.634 268.784 296.051C277.924 307.652 293.21 312.328 307.969 308.004C319.922 310.992 331.734 313.629 343.006 309.115C356.695 303.588 359.55 286.875 344.862 276.694V276.694Z" fill="#E79F79"/>
<path d="M155.482 219.016C158.306 238.598 168.446 256.381 183.86 268.784C189.921 247.388 186.279 224.599 182.601 202.69C182.13 199.877 180.865 198.858 177.736 200.341C168.834 204.546 162.119 212.203 155.482 219.016Z" fill="#FFAD92"/>
<path d="M277.242 208.603C268.861 205.587 263.827 196.72 262.322 187.945C260.817 179.17 262.54 169.066 269.157 162.963C279.626 153.316 299.855 156.769 304.854 163.561C308.721 168.827 310.479 187.502 302.358 199.357C296.867 207.422 286.425 211.915 277.242 208.603Z" fill="#FFB020"/>
<path d="M280.09 212.182C280.928 203.785 280.435 195.309 278.627 187.066C273.951 187.327 271.42 184.535 271.477 181.716C271.554 177.694 277.65 175.05 279.675 182.496C279.879 183.234 280.069 183.973 280.251 184.718C281.678 184.437 283.035 183.878 284.245 183.073C281.686 178.629 284.871 172.905 287.655 173.644C289.976 174.263 290.651 179.543 287.149 183.326C288.035 184.099 289.132 184.589 290.299 184.732C290.609 183.215 291.185 181.766 292.001 180.45C293.407 178.418 295.277 178.341 296.409 178.903C299.791 180.563 298.399 186.434 291.923 186.877C289.68 195.841 288.506 204.659 281.974 212.948C281.831 213.126 281.634 213.254 281.413 213.311C281.192 213.368 280.958 213.353 280.747 213.267C280.535 213.181 280.357 213.029 280.239 212.833C280.12 212.638 280.068 212.409 280.09 212.182ZM280.723 186.771C282.275 193.926 282.867 201.257 282.48 208.568C286.805 201.6 287.986 194.055 289.772 186.806C288.19 186.565 286.719 185.849 285.553 184.753C284.095 185.744 282.452 186.43 280.723 186.771ZM274.641 183.959C275.649 184.717 276.897 185.087 278.156 184.999C278.002 184.352 277.833 183.713 277.657 183.073C275.927 176.745 271.638 181.406 274.641 183.938V183.959ZM292.5 184.704C293.906 184.458 295.594 183.67 296.016 182.377C296.494 180.703 294.209 178.791 292.5 184.683V184.704ZM287.1 175.725C286.052 176.112 284.709 179.142 285.855 181.631C287.733 179.346 287.761 176.484 287.1 175.704V175.725Z" fill="#FFF7F2"/>
<path d="M77.8433 88.5937C74.0394 85.5773 70.0034 82.4554 65.187 81.6468C49.7183 79.0383 38.7354 99.5203 43.8261 114.061C45.7456 119.531 50.1542 124.242 55.6808 125.88C60.9331 127.427 68.8714 126.436 73.9058 123.968C87.9401 117.098 89.494 97.8187 77.8433 88.5937Z" fill="#7AD001"/>
<path d="M311.267 261.274C304.608 254.531 293.274 252.893 285.082 257.667C279.788 260.74 276.181 266.421 275.14 272.327C272.834 284.66 282.565 295.263 294.265 296.452C301.296 297.155 309.938 294.82 314.079 289.23C319.289 282.037 318.91 269.016 311.267 261.274Z" fill="#C72F55"/>
<path d="M337.43 287.367C331.216 283.067 324.551 279.46 317.553 276.609C317.635 279.148 317.288 281.682 316.526 284.105C319.099 285.23 321.413 286.116 321.209 287.655C320.414 294.349 278.606 279.921 272.278 277.376C271.092 277.023 270.03 276.343 269.213 275.414C268.51 274.423 268.439 272.812 269.473 272.137C270.506 271.462 272.869 271.905 275.14 272.327C275.668 269.346 276.807 266.507 278.487 263.988C274.884 262.526 271.162 261.373 267.363 260.543C244.287 255.937 230.098 271.294 290.229 289.491C319.859 298.455 330.223 300.22 338.147 297.049C343.533 294.87 342.07 290.595 337.43 287.367Z" fill="#FF605B"/>
<path d="M158.513 29.3766C154.251 23.3686 147.877 19.1922 140.667 17.6836C128.714 15.3914 115.474 21.9024 110.264 32.9484C104.562 44.9789 109.181 61.643 122.056 67.9992C145.42 79.6781 176.154 53.4375 158.513 29.3766Z" fill="#A97155"/>
<path d="M187.439 26.2969C177.713 26.2618 168.013 27.2946 158.513 29.3766C160.453 32.0069 161.932 34.948 162.886 38.0742C166.437 37.3711 169.538 36.668 170.445 38.4258C172.266 41.8641 161.761 46.5188 158.203 48.0234C143.003 54.5244 127.232 59.6016 111.094 63.1899C109.547 63.5414 107.895 63.8578 106.404 63.3375C104.913 62.8172 103.69 61.1367 104.295 59.6742C104.772 58.7763 105.551 58.0763 106.495 57.6984C107.796 56.9953 109.118 56.3414 110.454 55.7438C108.842 52.2088 107.98 48.3783 107.923 44.4938C74.025 52.643 67.0711 71.6273 85.1414 72.7383C103.423 73.8914 121.437 68.5617 138.973 62.9789C176.941 50.8992 189.211 45.2109 195.307 36.0703C199.378 29.8125 194.716 26.3391 187.439 26.2969Z" fill="#402E32"/>
<path d="M310.205 38.9883C307.392 63.8789 288.9 100.793 274.859 121.254C257.07 147.234 243.647 154.568 221.217 176.66C205.193 192.452 187.875 207.232 169.341 220.008C146.588 235.723 121.971 248.442 95.5618 256.458C87.497 253.519 82.0759 246.101 77.154 239.091C70.4532 229.528 63.6681 219.769 60.061 208.659C71.1288 183.372 85.9253 159.887 103.957 138.987C120.78 119.412 140.123 102.152 161.48 87.6586C203.203 59.3367 253.125 41.1047 306.028 34.8187C306.592 34.7551 307.162 34.8191 307.697 35.006C308.232 35.1929 308.719 35.498 309.12 35.8985C309.521 36.299 309.827 36.7848 310.015 37.3196C310.202 37.8545 310.268 38.4248 310.205 38.9883Z" fill="#A97155"/>
<path d="M103.746 147.966C61.1718 145.73 26.1069 170.859 27.8788 180C28.5819 183.6 33.5038 184.085 37.1179 183.551C50.7936 181.533 64.0264 177.258 77.196 173.004C86.1889 170.093 95.8288 166.718 101.194 158.941C102.348 157.384 103.17 155.606 103.609 153.718C104.048 151.83 104.095 149.872 103.746 147.966V147.966Z" fill="#FFF7F2"/>
<path d="M165.051 218.334C159.883 244.041 143.655 266.077 126.133 285.574C120.811 291.502 114.3 292.866 112.774 285.145C111.368 277.791 114.419 270.38 117.562 263.595C122.203 253.575 127.258 243.577 134.599 235.336C142.503 226.348 153.253 220.346 165.051 218.334V218.334Z" fill="#FFF7F2"/>
<path d="M69.012 205.882C52.1357 211.123 36.0683 218.681 21.2698 228.34C19.0269 229.802 18.2042 230.766 18.394 233.613C18.7034 238.141 20.7355 242.353 22.7815 246.403C32.2737 265.268 44.1847 285.708 65.7073 291.966C71.6979 293.716 74.3909 292.261 78.3636 286.791C87.2941 274.474 94.4097 260.939 99.4925 246.6C72.7175 213.905 69.898 211.458 69.012 205.882Z" fill="#EAE5DB"/>
<path d="M21.5929 244.28C37.5254 232.439 54.077 221.455 71.1773 211.373C71.338 211.289 71.525 211.271 71.6991 211.321C71.8733 211.372 72.0212 211.488 72.112 211.645C72.2027 211.802 72.2293 211.988 72.1862 212.164C72.143 212.34 72.0335 212.493 71.8804 212.59C54.8263 222.638 38.3193 233.587 22.4297 245.391C22.3588 245.463 22.2731 245.519 22.1787 245.555C22.0842 245.591 21.983 245.606 21.8821 245.599C21.7812 245.593 21.6829 245.564 21.5939 245.516C21.505 245.468 21.4274 245.401 21.3666 245.321C21.3057 245.24 21.263 245.147 21.2414 245.048C21.2197 244.949 21.2197 244.847 21.2412 244.748C21.2626 244.649 21.3052 244.556 21.3659 244.476C21.4266 244.395 21.504 244.328 21.5929 244.28Z" fill="#402E32"/>
<path d="M32.4842 264.178C47.742 250.038 63.5342 235.891 79.4108 222.117C79.5524 222.002 79.7335 221.946 79.9155 221.962C80.0976 221.977 80.2663 222.063 80.3861 222.201C80.5058 222.339 80.5671 222.519 80.557 222.701C80.5469 222.884 80.4662 223.055 80.3319 223.179C64.4694 236.939 48.6913 251.079 33.4405 265.212C33.3034 265.339 33.1216 265.406 32.935 265.398C32.7484 265.391 32.5724 265.31 32.4456 265.173C32.3187 265.036 32.2516 264.854 32.2588 264.668C32.2661 264.481 32.3472 264.305 32.4842 264.178Z" fill="#402E32"/>
<path d="M51.7498 285.096C64.0756 268.186 77.0623 251.522 90.274 235.561C90.3934 235.417 90.5649 235.327 90.7508 235.31C90.9367 235.293 91.1219 235.35 91.2654 235.47C91.409 235.589 91.4993 235.76 91.5165 235.946C91.5336 236.132 91.4762 236.317 91.3568 236.461C78.1381 252.394 65.1936 269.037 52.8889 285.926C52.7789 286.077 52.6133 286.178 52.4287 286.207C52.2441 286.236 52.0556 286.19 51.9045 286.08C51.7535 285.97 51.6523 285.805 51.6233 285.62C51.5943 285.436 51.6398 285.247 51.7498 285.096Z" fill="#402E32"/>
<path d="M169.341 220.036C146.588 235.751 121.971 248.47 95.5618 256.486C87.497 253.547 82.0759 246.129 77.154 239.119C70.4532 229.556 63.6681 219.797 60.061 208.687C71.1288 183.4 85.9253 159.915 103.957 139.015C124.277 152.177 139.964 172.111 154.076 192.087C160.221 200.791 166.317 209.89 169.341 220.036Z" fill="#FF605B"/>
<path d="M310.204 38.9883C308.538 53.7117 301.422 72.5625 293.006 89.7047C290.053 78.9328 285.897 68.4492 279.422 59.4C274.756 52.7651 268.745 47.1877 261.78 43.0312C276.334 39.3305 291.115 36.5872 306.028 34.8187C306.591 34.7551 307.162 34.8191 307.697 35.006C308.232 35.1929 308.718 35.498 309.12 35.8985C309.521 36.299 309.827 36.7848 310.014 37.3196C310.202 37.8545 310.267 38.4248 310.204 38.9883Z" fill="#FF605B"/>
<path d="M236.897 120.502C252.981 120.502 266.02 107.463 266.02 91.3781C266.02 75.2937 252.981 62.2547 236.897 62.2547C220.812 62.2547 207.773 75.2937 207.773 91.3781C207.773 107.463 220.812 120.502 236.897 120.502Z" fill="#EAE5DB"/>
<path d="M236.897 114.87C250.189 114.87 260.965 104.352 260.965 91.3781C260.965 78.4042 250.189 67.8867 236.897 67.8867C223.605 67.8867 212.829 78.4042 212.829 91.3781C212.829 104.352 223.605 114.87 236.897 114.87Z" fill="#FFF7F2"/>
<path d="M54.3095 107.62C51.9962 107.395 52.3197 103.894 54.64 104.105C57.5861 104.386 60.5814 104.534 63.5486 104.548L62.0017 89.2969C61.7697 86.9836 65.2712 86.632 65.5173 88.9453C67.3173 106.784 67.5704 106.277 66.6775 107.318C66.4374 107.58 66.1434 107.787 65.8156 107.924C65.4878 108.061 65.1341 108.125 64.779 108.112C61.283 108.13 57.7884 107.966 54.3095 107.62Z" fill="#FFF7F2"/>
<path d="M177.771 263.489C178.637 227.572 173.297 191.776 161.986 157.676C161.001 154.716 159.961 151.573 160.664 148.535C161.367 145.498 164.601 142.819 167.519 143.916C174.797 146.665 183.234 173.524 187.115 182.475C190.35 161.831 180.028 140.991 181.723 133.102C182.341 130.198 184.626 127.42 187.587 127.231C191.805 126.956 194.54 131.534 196.144 135.457C202.003 149.779 206.852 164.494 210.656 179.494C211.577 155.588 206.402 146.517 207.738 139.078C208.997 132.047 215.43 129.839 217.287 131.808C218.763 133.383 224.114 158.576 226.132 178.966C225.97 169.186 219.255 147.164 228.206 147.164C231.398 151.523 232.938 157.099 233.585 161.585C237.902 191.609 238.113 221.484 231.328 251.016C236.911 276.328 238.76 302.238 240.595 328.071C240.82 331.256 240.448 332.459 237.389 334.315C219.579 345.143 195.961 345.649 177.701 335.588C174.888 334.041 174.537 332.909 175.015 329.836C178.411 307.969 177.23 285.799 177.771 263.489Z" fill="#FFAD92"/>
<path d="M185.948 204.258C185.498 204.176 185.097 203.921 184.832 203.548C184.566 203.176 184.456 202.714 184.526 202.261C184.595 201.809 184.839 201.401 185.204 201.125C185.57 200.85 186.028 200.727 186.483 200.784C200.174 202.872 214.116 202.691 227.749 200.25C230.041 199.842 230.66 203.302 228.368 203.709C214.354 206.221 200.022 206.406 185.948 204.258Z" fill="#ED6C4D"/>
<path d="M113.386 190.835C95.3702 200.885 79.4801 214.342 66.6003 230.456C64.9479 232.523 63.2815 235.076 63.9846 237.656C64.6878 240.082 67.4088 241.446 69.926 241.369C72.4432 241.291 74.7776 240.124 77.0065 238.95C98.4448 227.637 119.194 213.391 132.364 193.043C134.36 189.956 136.224 186.581 136.35 182.911C128.297 184.212 120.528 186.892 113.386 190.835V190.835Z" fill="#FFF7F2"/>
<path d="M275.962 207.021C276.377 212.808 278.17 224.923 284.217 227.145C287.276 228.263 290.862 226.877 292.999 224.423C298.237 218.419 296.135 206.142 295.263 205.439C295.081 205.34 294.878 205.285 294.67 205.278C294.463 205.27 294.257 205.311 294.068 205.397C288.199 207.128 282.046 207.68 275.962 207.021Z" fill="#402E32"/>
</svg>
