<svg width="360" height="360" viewBox="0 0 360 360" fill="none" xmlns="http://www.w3.org/2000/svg">
<path d="M355.671 232.067H355.535L354.013 65.4764C353.939 59.0971 351.357 53.0033 346.826 48.5122C342.295 44.021 336.179 41.4933 329.799 41.4752L28.3396 42.6136C21.9295 42.6463 15.7932 45.2163 11.2729 49.7615C6.75267 54.3066 4.21641 60.4569 4.21891 66.8672C4.21891 67.4065 4.20344 55.1334 4.47344 257.538C4.49593 263.933 7.04204 270.061 11.5582 274.589C16.0744 279.117 22.1955 281.68 28.5906 281.719L151.823 282.225V293.534H118.854V318.525H241.383V293.534H208.419V282.456L248.585 282.62V300.605C248.585 310.486 256.14 318.524 265.426 318.524H322.624C331.91 318.524 339.465 310.486 339.465 300.605V281.65C344.258 279.993 348.41 276.874 351.337 272.733C354.264 268.591 355.819 263.636 355.781 258.565L355.671 232.067Z" fill="#E79F79"/>
<path d="M199.776 262.601H160.465V306.029H199.776V262.601Z" fill="#B2ACA3"/>
<path d="M232.741 302.178H127.498V309.88H232.741V302.178Z" fill="#FFF7F2"/>
<path d="M347.137 258.6L347.062 250.885L345.369 65.5509C345.333 61.4354 343.669 57.5016 340.741 54.6098C337.812 51.7179 333.858 50.1034 329.742 50.1194L28.3697 51.2577C24.2463 51.2736 20.2977 52.9247 17.3905 55.8488C14.4832 58.7729 12.8549 62.7311 12.863 66.8545C12.863 67.3945 12.8468 55.1172 13.1175 257.522C13.1212 261.637 14.7547 265.584 17.6607 268.498C20.5667 271.413 24.5086 273.058 28.6242 273.073L331.51 274.317C333.572 274.323 335.614 273.92 337.518 273.131C339.423 272.343 341.152 271.184 342.606 269.722C344.059 268.26 345.208 266.524 345.986 264.615C346.764 262.706 347.155 260.662 347.137 258.6V258.6Z" fill="#FFF7F2"/>
<path d="M35.6598 87.5286L167.918 88.7815L164.977 213.874L33.9414 213.002L35.6598 87.5286Z" fill="#402E32"/>
<path d="M34.8407 147.359L56.4871 126.849C58.4486 124.99 60.7748 123.559 63.3184 122.646C65.8619 121.734 68.5673 121.359 71.2631 121.547C73.9589 121.735 76.5862 122.481 78.9787 123.737C81.3711 124.994 83.4764 126.733 85.1612 128.846L110.733 160.913L121.459 151.139C124.826 148.072 129.176 146.305 133.728 146.157C138.28 146.009 142.736 147.49 146.294 150.333L166.099 166.158L164.974 213.877L33.9414 213.002L34.8407 147.359Z" fill="#198754"/>
<path d="M115.436 129.178C121.776 129.178 126.916 124.038 126.916 117.697C126.916 111.357 121.776 106.217 115.436 106.217C109.095 106.217 103.955 111.357 103.955 117.697C103.955 124.038 109.095 129.178 115.436 129.178Z" fill="#FFB020"/>
<path d="M183.553 87.6466L183.397 123.886L317.7 125.652L317.417 87.7605L183.553 87.6466Z" fill="#A97155"/>
<path d="M181.544 140.133L180.884 167.446L248.603 167.608L247.266 141.509L181.544 140.133Z" fill="#FFB020"/>
<path d="M178.6 192.213C178.134 192.213 177.687 192.028 177.357 191.698C177.027 191.369 176.842 190.922 176.842 190.455C176.842 189.989 177.027 189.542 177.357 189.212C177.687 188.883 178.134 188.698 178.6 188.698C221.581 188.698 266.622 190.195 308.166 189.944H308.176C308.642 189.942 309.09 190.126 309.421 190.455C309.751 190.783 309.938 191.23 309.939 191.696C309.941 192.162 309.757 192.61 309.428 192.941C309.099 193.271 308.653 193.458 308.187 193.459C266.478 193.711 221.676 192.213 178.6 192.213Z" fill="#B2ACA3"/>
<path d="M308.18 214.808H308.148C294.783 214.571 281.148 214.49 267.963 214.413C238.567 214.239 208.172 214.061 178.205 212.145C177.975 212.131 177.75 212.071 177.543 211.969C177.335 211.867 177.15 211.725 176.998 211.552C176.69 211.202 176.534 210.744 176.564 210.279C176.578 210.048 176.638 209.823 176.74 209.616C176.842 209.409 176.984 209.224 177.157 209.071C177.507 208.763 177.965 208.607 178.43 208.637C208.294 210.545 238.639 210.724 267.983 210.897C281.18 210.975 294.824 211.056 308.21 211.293C308.676 211.297 309.121 211.486 309.448 211.819C309.775 212.151 309.956 212.6 309.952 213.066C309.948 213.532 309.759 213.978 309.427 214.305C309.094 214.631 308.646 214.813 308.18 214.809V214.808Z" fill="#B2ACA3"/>
<path d="M347.137 258.6L347.062 240.711H13.1021L13.1175 257.522C13.1212 261.637 14.7547 265.584 17.6607 268.498C20.5667 271.413 24.5086 273.058 28.6242 273.073L331.51 274.317C333.572 274.323 335.614 273.92 337.518 273.131C339.423 272.343 341.152 271.184 342.606 269.722C344.059 268.26 345.208 266.524 345.986 264.615C346.764 262.706 347.155 260.662 347.137 258.6V258.6Z" fill="#A369F7"/>
<path d="M180.884 265.116C185.298 265.116 188.876 261.538 188.876 257.124C188.876 252.711 185.298 249.133 180.884 249.133C176.47 249.133 172.892 252.711 172.892 257.124C172.892 261.538 176.47 265.116 180.884 265.116Z" fill="#FFF7F2"/>
<path d="M330.82 181.37V300.605C330.82 305.722 327.154 309.88 322.624 309.88H265.425C260.903 309.88 257.229 305.722 257.229 300.605V181.37C257.229 176.252 260.903 172.095 265.425 172.095H322.624C327.155 172.095 330.82 176.252 330.82 181.37Z" fill="#402E32"/>
<path d="M328.072 185.829V295.491C328.072 300.464 324.397 304.491 319.875 304.491H268.175C263.654 304.491 259.979 300.466 259.979 295.491V185.829C259.979 180.856 263.654 176.829 268.175 176.829H278.174V178.582C278.174 181.525 280.354 183.915 283.033 183.915H305.016C307.697 183.915 309.873 181.524 309.873 178.582V176.829H319.873C324.397 176.831 328.072 180.856 328.072 185.829Z" fill="#FFF7F2"/>
<path d="M264.413 189.562L324.268 190.13L322.937 246.741L263.636 246.346L264.413 189.562Z" fill="#402E32"/>
<path d="M264.043 216.639L273.839 207.358C274.726 206.517 275.779 205.869 276.93 205.456C278.081 205.043 279.306 204.873 280.526 204.958C281.746 205.044 282.935 205.381 284.018 205.95C285.1 206.518 286.053 207.306 286.816 208.262L298.388 222.773L303.24 218.349C304.763 216.961 306.732 216.161 308.792 216.095C310.852 216.028 312.869 216.698 314.479 217.984L323.441 225.146L322.934 246.742L263.633 246.347L264.043 216.639Z" fill="#198754"/>
<path d="M300.517 208.411C303.386 208.411 305.712 206.085 305.712 203.216C305.712 200.346 303.386 198.02 300.517 198.02C297.647 198.02 295.321 200.346 295.321 203.216C295.321 206.085 297.647 208.411 300.517 208.411Z" fill="#FFB020"/>
<path d="M264.572 250.46L264.517 263.169L311.617 263.789L311.517 250.5L264.572 250.46Z" fill="#A97155"/>
<path d="M263.867 268.867L263.636 278.445L287.384 278.502L286.916 269.35L263.867 268.867Z" fill="#FFB020"/>
<path d="M265.103 287.859C264.637 287.859 264.19 287.674 263.86 287.345C263.53 287.015 263.345 286.568 263.345 286.102C263.345 285.635 263.53 285.188 263.86 284.859C264.19 284.529 264.637 284.344 265.103 284.344C280.321 284.344 296.203 284.873 311.121 284.786H311.132C311.363 284.785 311.591 284.83 311.805 284.918C312.018 285.006 312.212 285.134 312.376 285.297C312.54 285.46 312.67 285.653 312.759 285.866C312.848 286.079 312.894 286.308 312.895 286.539C312.895 286.769 312.851 286.998 312.763 287.212C312.675 287.425 312.546 287.619 312.384 287.783C312.221 287.947 312.028 288.077 311.815 288.166C311.602 288.255 311.373 288.301 311.142 288.302C296.142 288.387 280.534 287.859 265.103 287.859Z" fill="#B2ACA3"/>
<path d="M311.133 295.882H311.101C295.786 295.611 280.33 295.921 264.89 294.934C264.425 294.904 263.991 294.691 263.683 294.341C263.375 293.991 263.218 293.533 263.248 293.068C263.278 292.602 263.491 292.168 263.841 291.86C264.191 291.552 264.649 291.396 265.115 291.426C280.443 292.405 295.907 292.096 311.163 292.367C311.629 292.371 312.075 292.56 312.402 292.893C312.728 293.225 312.91 293.674 312.906 294.14C312.902 294.606 312.713 295.052 312.38 295.379C312.048 295.705 311.599 295.887 311.133 295.883V295.882Z" fill="#B2ACA3"/>
</svg>
