<svg width="360" height="360" viewBox="0 0 360 360" fill="none" xmlns="http://www.w3.org/2000/svg">
<path d="M332.35 40.6301L27.8501 41.734C21.6846 41.7695 15.782 44.2361 11.4244 48.598C7.06674 52.96 4.60604 58.865 4.57669 65.0306L4.2188 243.324C4.21242 246.394 4.81155 249.434 5.98187 252.272C7.1522 255.109 8.87075 257.688 11.0391 259.861C13.2075 262.033 15.783 263.756 18.6184 264.932C21.4537 266.108 24.4931 266.713 27.5626 266.712L142.639 266.013L140.84 293.169H115.383V318.222H244.412V293.169L245.474 302.971C245.518 305.169 245.994 307.336 246.876 309.35C247.758 311.363 249.028 313.183 250.613 314.706C252.199 316.228 254.069 317.423 256.117 318.223C258.164 319.022 260.349 319.41 262.547 319.365L318.174 317.987C322.543 317.861 326.689 316.03 329.726 312.885C332.762 309.741 334.447 305.533 334.42 301.163L334.053 264.788C339.897 264.309 345.349 261.655 349.331 257.352C353.313 253.048 355.536 247.407 355.561 241.543L355.781 64.0196C355.787 60.9429 355.184 57.8956 354.008 55.0526C352.832 52.2096 351.106 49.6271 348.928 47.4536C346.751 45.28 344.165 43.5582 341.32 42.3872C338.475 41.2162 335.427 40.6191 332.35 40.6301Z" fill="#E79F79"/>
<path d="M152.5 247.229L148.762 303.66L211.03 303.77L203.614 249.538L152.5 247.229Z" fill="#FFF7F2"/>
<path d="M123.975 301.764H235.817V309.627H123.975V301.764Z" fill="#B2ACA3"/>
<path d="M347.186 64.0055L346.975 228.912L346.963 241.535C346.954 245.428 345.408 249.159 342.661 251.918C339.915 254.677 336.19 256.24 332.297 256.266L27.6553 258.117C25.7084 258.129 23.7785 257.754 21.9768 257.016C20.1751 256.278 18.5372 255.191 17.1577 253.817C15.7781 252.443 14.6841 250.81 13.9387 249.011C13.1933 247.213 12.8112 245.284 12.8145 243.337L12.8391 229.746L13.1696 65.0482C13.1803 61.1499 14.7328 57.4142 17.4881 54.6565C20.2434 51.8988 23.9778 50.3431 27.8761 50.329L180 49.7813L332.381 49.2293C334.324 49.2242 336.25 49.6027 338.046 50.3432C339.843 51.0836 341.476 52.1713 342.851 53.5441C344.226 54.9168 345.317 56.5475 346.061 58.3427C346.805 60.1379 347.187 62.0623 347.186 64.0055Z" fill="#FFF7F2"/>
<path d="M346.977 228.912L346.965 241.535C346.956 245.428 345.41 249.16 342.663 251.919C339.916 254.678 336.19 256.24 332.297 256.266L27.6553 258.117C25.7084 258.129 23.7785 257.754 21.9768 257.016C20.1751 256.278 18.5372 255.191 17.1577 253.817C15.7781 252.443 14.6841 250.81 13.9387 249.011C13.1933 247.213 12.8112 245.284 12.8145 243.338L12.8391 229.746L346.977 228.912Z" fill="#B2ACA3"/>
<path d="M336.762 97.5727C336.776 90.237 329.056 85.4578 321.319 85.4578H321.273L179.995 85.8445C178.912 85.9795 178.242 86.502 178.242 87.6024V213.09C178.249 213.554 178.437 213.997 178.765 214.325C179.093 214.653 179.536 214.841 180 214.848H334.811C335.275 214.84 335.718 214.652 336.046 214.324C336.374 213.996 336.561 213.554 336.569 213.09L336.762 97.5727ZM333.246 97.5663L333.059 209.407L260.175 150.328L331.166 92.7506C332.462 94.0224 333.208 95.7506 333.246 97.5656V97.5663ZM181.758 91.2895L254.592 150.328L181.758 209.4V91.2895ZM257.384 152.591L329.851 211.332H184.958L257.384 152.591ZM321.282 88.9734C323.697 88.953 326.081 89.5106 328.236 90.5998L257.383 148.065L184.943 89.3468L321.282 88.9734Z" fill="#402E32"/>
<path d="M36.8865 131.921L36.7881 162.849L134.011 162.216L134.285 132.716L36.8865 131.921Z" fill="#FFB020"/>
<path d="M36.7881 176.622V196.55L91.2233 196.457L91.9124 177.025L36.7881 176.622Z" fill="#A369F7"/>
<path d="M162.41 74.0391C162.406 74.6569 162.525 75.2693 162.76 75.8408C162.994 76.4122 163.34 76.9314 163.777 77.3681C164.214 77.8048 164.734 78.1503 165.305 78.3847C165.877 78.619 166.49 78.7375 167.107 78.7332L195.692 78.5356C200.345 78.5039 200.384 73.4921 200.333 73.6074C200.35 72.9761 200.239 72.3479 200.007 71.7608C199.774 71.1737 199.425 70.64 198.98 70.192C198.535 69.7439 198.003 69.3909 197.418 69.1543C196.832 68.9177 196.205 68.8025 195.573 68.8156L166.977 69.4034C165.762 69.4288 164.605 69.9275 163.752 70.7933C162.899 71.6591 162.417 72.8237 162.41 74.0391Z" fill="#A97155"/>
<path d="M213.785 73.8633C213.776 74.481 213.889 75.0944 214.119 75.668C214.348 76.2415 214.69 76.7638 215.123 77.2044C215.556 77.645 216.072 77.9952 216.641 78.2347C217.211 78.4742 217.822 78.5982 218.44 78.5996L247.025 78.6621C248.235 78.6649 249.399 78.1977 250.27 77.3591C251.142 76.5204 251.654 75.3759 251.698 74.1671C251.671 74.0967 251.909 68.8845 246.997 68.9407L218.396 69.2691C217.181 69.2831 216.018 69.771 215.157 70.6292C214.296 71.4873 213.804 72.6477 213.785 73.8633Z" fill="#A97155"/>
<path d="M265.259 74.3105C265.265 74.9282 265.393 75.5388 265.636 76.1067C265.879 76.6746 266.232 77.1886 266.675 77.6189C267.119 78.0491 267.643 78.3871 268.218 78.6131C268.793 78.8392 269.407 78.9488 270.025 78.9356L298.604 78.3253C299.813 78.2994 300.965 77.8048 301.817 76.9458C302.668 76.0869 303.153 74.9308 303.169 73.7213C303.14 73.651 303.253 68.4352 298.346 68.6067L269.762 69.6094C268.547 69.652 267.396 70.1672 266.555 71.0452C265.714 71.9233 265.25 73.0948 265.259 74.3105Z" fill="#A97155"/>
<path d="M78.9208 87.196L78.6684 64.8591C78.6624 64.6247 78.6102 64.3937 78.5148 64.1795C78.4194 63.9653 78.2827 63.7719 78.1125 63.6106C77.9423 63.4493 77.7419 63.3231 77.5229 63.2394C77.3039 63.1556 77.0705 63.1158 76.836 63.1224L35.5246 64.8802C35.0818 64.903 34.6636 65.0908 34.3522 65.4064C34.0408 65.7221 33.8588 66.1429 33.842 66.586C33.6311 73.5385 33.7471 80.5859 34.1831 87.532C34.2265 87.9732 34.4286 88.3835 34.752 88.6867C35.0754 88.9899 35.4979 89.1653 35.9409 89.1802L77.1616 88.9763H77.1735C77.6405 88.9692 78.0858 88.7784 78.4129 88.4451C78.74 88.1118 78.9225 87.6629 78.9208 87.196ZM37.2958 69.4392L51.8617 76.6512L37.5468 84.529C37.2916 79.5122 37.21 74.461 37.2986 69.4392H37.2958ZM42.5165 68.1033L69.4891 66.9558L55.6171 74.5861L42.5165 68.1033ZM55.7008 78.5538L69.7225 85.4965L42.8392 85.6294L55.7008 78.5538ZM59.4534 76.4888L75.1837 67.8361L75.37 84.3701L59.4534 76.4888Z" fill="#402E32"/>
<path d="M252.211 185.051L254.069 302.836C254.085 303.901 254.313 304.953 254.739 305.93C255.164 306.907 255.779 307.79 256.548 308.527C257.316 309.265 258.224 309.844 259.217 310.229C260.211 310.614 261.271 310.798 262.336 310.771L317.964 309.394C320.082 309.341 322.094 308.457 323.565 306.933C325.037 305.409 325.85 303.368 325.828 301.25L324.647 184.34C324.625 182.203 323.756 180.162 322.23 178.664C320.705 177.167 318.647 176.337 316.51 176.356L260.205 176.858C259.141 176.868 258.089 177.087 257.111 177.505C256.132 177.922 255.246 178.529 254.503 179.291C253.76 180.052 253.175 180.953 252.781 181.942C252.388 182.93 252.194 183.987 252.211 185.051Z" fill="#A97155"/>
<path d="M321.68 297.522C321.741 299.448 321.043 301.32 319.736 302.735C318.429 304.151 316.618 304.995 314.694 305.086L265.338 306.371C264.371 306.373 263.413 306.183 262.52 305.813C261.627 305.442 260.816 304.898 260.134 304.213C259.452 303.527 258.912 302.713 258.547 301.818C258.181 300.923 257.997 299.964 258.004 298.997L256.359 189.572C256.324 188.606 256.48 187.643 256.818 186.737C257.156 185.831 257.669 185.001 258.328 184.294C258.987 183.586 259.78 183.016 260.66 182.616C261.539 182.216 262.49 181.993 263.456 181.96L267.261 181.929L267.277 182.976C267.272 183.598 267.39 184.215 267.624 184.791C267.859 185.368 268.206 185.891 268.645 186.333C269.084 186.774 269.606 187.123 270.181 187.361C270.756 187.598 271.373 187.719 271.995 187.717L303.782 186.9C305.02 186.838 306.185 186.292 307.025 185.381C307.866 184.469 308.316 183.264 308.277 182.024L308.269 181.541L313.415 181.493C315.355 181.523 317.203 182.321 318.555 183.712C319.907 185.104 320.651 186.975 320.625 188.914L321.68 297.522Z" fill="#FFF7F2"/>
<path d="M263.199 266.853L263.185 271.478C263.183 272.008 263.286 272.532 263.488 273.022C263.691 273.512 263.988 273.956 264.363 274.33C264.738 274.704 265.184 275 265.674 275.201C266.164 275.401 266.689 275.503 267.219 275.499L299.154 275.288C300.206 275.282 301.213 274.861 301.958 274.118C302.704 273.375 303.127 272.369 303.136 271.317L303.175 267.161C303.18 266.634 303.081 266.111 302.884 265.623C302.686 265.134 302.395 264.689 302.026 264.313C301.656 263.938 301.217 263.638 300.731 263.433C300.246 263.227 299.725 263.119 299.199 263.115L267.24 262.854C266.712 262.85 266.188 262.95 265.698 263.149C265.209 263.348 264.764 263.641 264.388 264.013C264.013 264.385 263.714 264.827 263.51 265.314C263.306 265.802 263.201 266.324 263.199 266.853Z" fill="#FFB020"/>
<path d="M263.171 283.051V283.182C263.171 283.708 263.275 284.23 263.477 284.717C263.679 285.204 263.975 285.646 264.348 286.018C264.721 286.39 265.164 286.685 265.651 286.886C266.138 287.087 266.66 287.19 267.187 287.189L281.665 287.165C282.703 287.163 283.699 286.759 284.445 286.038C285.191 285.317 285.628 284.334 285.664 283.298C285.683 282.762 285.594 282.228 285.403 281.728C285.212 281.227 284.923 280.77 284.552 280.383C284.181 279.997 283.737 279.688 283.245 279.476C282.753 279.264 282.223 279.153 281.687 279.149L267.209 279.043C266.681 279.039 266.156 279.14 265.666 279.339C265.177 279.539 264.731 279.833 264.356 280.206C263.981 280.579 263.683 281.022 263.479 281.51C263.276 281.998 263.171 282.522 263.171 283.051Z" fill="#A369F7"/>
<path d="M315.501 203.015C315.487 202.555 315.297 202.119 314.969 201.797C314.642 201.474 314.202 201.291 313.743 201.285H263.948C263.484 201.291 263.04 201.478 262.712 201.807C262.384 202.135 262.197 202.579 262.19 203.043V256.364C262.2 256.824 262.389 257.263 262.718 257.586C263.046 257.909 263.488 258.091 263.948 258.093H313.747C314.211 258.086 314.654 257.899 314.983 257.57C315.311 257.242 315.498 256.799 315.505 256.335C315.503 256.219 315.501 203.087 315.501 203.015ZM286.441 229.689L265.706 251.88V207.499L286.441 229.689ZM267.996 204.799H309.697L288.844 227.114L267.996 204.799ZM288.844 232.263L309.694 254.577H267.996L288.844 232.263ZM291.25 229.689L311.985 207.499V251.88L291.25 229.689Z" fill="#402E32"/>
<path d="M276.178 302.794C275.712 302.805 275.26 302.631 274.922 302.31C274.584 301.989 274.388 301.546 274.376 301.08C274.364 300.614 274.538 300.162 274.86 299.824C275.181 299.486 275.624 299.29 276.09 299.278L304.628 297.822C304.861 297.807 305.094 297.838 305.314 297.913C305.535 297.989 305.738 298.108 305.912 298.263C306.086 298.418 306.228 298.606 306.328 298.816C306.429 299.026 306.487 299.254 306.499 299.487C306.511 299.719 306.476 299.952 306.397 300.171C306.318 300.391 306.197 300.592 306.039 300.764C305.882 300.936 305.692 301.074 305.48 301.172C305.269 301.27 305.04 301.324 304.807 301.333L276.268 302.789C276.238 302.792 276.208 302.794 276.178 302.794Z" fill="#E79F79"/>
</svg>
