<svg width="360" height="360" viewBox="0 0 360 360" fill="none" xmlns="http://www.w3.org/2000/svg">
<path d="M351.021 298.955C339.251 285.659 325.709 272.545 319.866 258.342V232.566L327.509 231.054C331.994 230.165 335.988 227.642 338.718 223.974C341.447 220.306 342.715 215.754 342.277 211.203C341.839 206.652 339.725 202.426 336.347 199.346C332.968 196.265 328.565 194.55 323.993 194.534L324.12 192.22L328.852 193.359L347.302 168.131L344.489 165.087L346.894 164.173V134.438L340.172 132.947L343.343 128.201L323.902 107.761L319.929 109.364V100.357C328.683 95.9274 339.096 86.3719 339.096 69.9821C339.096 45.9915 324.063 38.5805 322.348 37.8141L319.901 36.7243H192.698C192.983 33.785 193.075 30.8302 192.973 27.879C192.22 7.69224 167.913 5.04146 162.977 22.1907C161.616 26.9254 160.814 31.8031 160.587 36.7243H35.8593L34.0101 37.3079C28.3851 39.0797 9.87882 48.9446 7.29132 101.454C5.99054 127.329 7.29132 189.141 8.69757 238.563C5.84273 242.432 4.30482 247.115 4.31007 251.923V322.798C4.31007 328.765 6.6806 334.488 10.9002 338.708C15.1197 342.927 20.8427 345.298 26.8101 345.298H120.234C123.488 345.294 126.703 344.585 129.657 343.221C132.611 341.857 135.235 339.869 137.348 337.395L283.599 338.941C288.682 346.528 293.337 350.276 302.78 348.785C310.366 347.59 319.163 346.008 327.614 342.394C337.514 338.175 348.469 327.031 353.327 318.734C357.188 312.188 356.618 305.276 351.021 298.955Z" fill="#E79F79"/>
<path d="M37.7717 49.3243C37.7717 49.3243 22.1975 54.2462 19.7998 102.059C17.4022 149.871 24.0186 323.585 24.0186 323.585L307.266 326.609V49.3243H37.7717Z" fill="#EAE5DB"/>
<path d="M124.615 241.98H22.3454C19.2932 241.98 16.8188 244.455 16.8188 247.507V327.185C16.8188 330.237 19.2932 332.712 22.3454 332.712H124.615C127.667 332.712 130.141 330.237 130.141 327.185V247.507C130.141 244.455 127.667 241.98 124.615 241.98Z" fill="#402E32"/>
<path d="M115.537 162.45H45.0068C42.5604 162.45 40.5771 164.433 40.5771 166.88V220.395C40.5771 222.841 42.5604 224.824 45.0068 224.824H115.537C117.984 224.824 119.967 222.841 119.967 220.395V166.88C119.967 164.433 117.984 162.45 115.537 162.45Z" fill="#A97155"/>
<path d="M111.797 176.695V210.593C111.796 211.636 111.589 212.669 111.189 213.633C110.789 214.597 110.203 215.472 109.465 216.209C108.726 216.946 107.85 217.531 106.885 217.929C105.921 218.328 104.888 218.532 103.844 218.531H54.8436C52.7382 218.531 50.7191 217.695 49.2303 216.206C47.7416 214.717 46.9053 212.698 46.9053 210.593V176.695C46.9044 175.652 47.109 174.619 47.5075 173.655C47.906 172.691 48.4906 171.815 49.2279 171.078C49.9651 170.34 50.8405 169.754 51.8041 169.355C52.7677 168.956 53.8005 168.75 54.8436 168.75H103.851C105.959 168.75 107.979 169.587 109.47 171.077C110.96 172.567 111.797 174.588 111.797 176.695V176.695Z" fill="#FFF7F2"/>
<path d="M111.797 192.797V210.593C111.796 211.636 111.589 212.669 111.189 213.633C110.789 214.597 110.203 215.472 109.465 216.209C108.726 216.946 107.85 217.531 106.885 217.929C105.921 218.328 104.888 218.532 103.844 218.531H54.8436C52.7382 218.531 50.7191 217.695 49.2303 216.206C47.7416 214.717 46.9053 212.698 46.9053 210.593V199.02C51.6912 195.105 56.6131 191.355 61.6709 187.77C75.2061 178.305 78.4475 185.66 83.2709 191.531C85.535 194.288 89.2897 196.706 92.5311 195.173C94.8655 194.063 95.9483 191.313 98.0154 189.773C100.343 188.051 103.64 188.114 106.305 189.211C108.317 190.102 110.172 191.313 111.797 192.797Z" fill="#7AD001"/>
<path d="M202.901 269.206L180.647 268.657C174.565 268.502 171.506 269.747 170.283 278.606C169.03 287.423 168.244 296.299 167.927 305.198C167.744 310.528 168.947 313.938 178.235 314.733C195.958 316.257 213.791 315.937 231.447 313.777C235.35 313.298 236.608 312.37 237.621 308.208C239.92 298.726 240.988 288.987 240.799 279.232C240.679 272.904 238.753 271.294 233.388 270.52C223.296 269.055 213.081 268.614 202.901 269.206Z" fill="#FF605B"/>
<path d="M197.325 282.15C195.215 304.249 194.716 304.882 196.27 306.162C198.506 308.004 208.884 304.629 215.367 298.336C217.786 295.973 218.123 294.117 215.599 290.96C212.296 286.955 208.409 283.47 204.068 280.624C202.767 279.745 201.304 278.866 199.743 279.028C198.182 279.19 196.762 280.976 197.325 282.15V282.15Z" fill="#FFF7F2"/>
<path d="M37.7718 49.3243C37.7718 49.3243 51.8343 50.5197 50.0483 70.5868C48.2624 90.654 33.8765 90.647 33.8765 90.647H310.261C310.261 90.647 326.433 86.4986 326.433 69.9822C326.433 53.4657 317.144 49.3243 317.144 49.3243H37.7718Z" fill="#A97155"/>
<path d="M71.7539 264.023C75.8896 264.023 79.2422 260.671 79.2422 256.535C79.2422 252.399 75.8896 249.047 71.7539 249.047C67.6182 249.047 64.2656 252.399 64.2656 256.535C64.2656 260.671 67.6182 264.023 71.7539 264.023Z" fill="#FFB020"/>
<path d="M87.2508 277.179H56.25C56.25 275.144 56.6507 273.13 57.4294 271.25C58.208 269.37 59.3492 267.662 60.7879 266.223C62.2266 264.785 63.9346 263.644 65.8143 262.865C67.6941 262.086 69.7087 261.686 71.7434 261.686C73.778 261.686 75.7927 262.086 77.6724 262.865C79.5522 263.644 81.2601 264.785 82.6988 266.223C84.1375 267.662 85.2787 269.37 86.0574 271.25C86.836 273.13 87.2367 275.144 87.2367 277.179H87.2508Z" fill="#FFB020"/>
<path d="M44.114 315.675C47.108 315.675 49.5351 313.248 49.5351 310.254C49.5351 307.26 47.108 304.833 44.114 304.833C41.12 304.833 38.6929 307.26 38.6929 310.254C38.6929 313.248 41.12 315.675 44.114 315.675Z" fill="#FFB020"/>
<path d="M55.3431 325.209H32.8923C32.7905 323.673 33.0053 322.132 33.5233 320.681C34.0414 319.231 34.8516 317.903 35.904 316.778C36.9563 315.654 38.2283 314.757 39.6412 314.145C41.054 313.532 42.5777 313.216 44.1177 313.216C45.6577 313.216 47.1813 313.532 48.5942 314.145C50.007 314.757 51.279 315.654 52.3314 316.778C53.3837 317.903 54.194 319.231 54.7121 320.681C55.2301 322.132 55.4449 323.673 55.3431 325.209Z" fill="#FFB020"/>
<path d="M98.4724 315.675C101.466 315.675 103.893 313.248 103.893 310.254C103.893 307.26 101.466 304.833 98.4724 304.833C95.4784 304.833 93.0513 307.26 93.0513 310.254C93.0513 313.248 95.4784 315.675 98.4724 315.675Z" fill="#FFB020"/>
<path d="M109.687 325.209H87.2507C87.1489 323.673 87.3637 322.132 87.8817 320.681C88.3998 319.231 89.21 317.903 90.2624 316.778C91.3147 315.654 92.5867 314.757 93.9996 314.145C95.4124 313.532 96.9361 313.216 98.4761 313.216C100.016 313.216 101.54 313.532 102.953 314.145C104.365 314.757 105.637 315.654 106.69 316.778C107.742 317.903 108.552 319.231 109.07 320.681C109.589 322.132 109.803 323.673 109.701 325.209H109.687Z" fill="#FFB020"/>
<path d="M88.5232 310.957C52.3826 310.816 53.8662 311.281 53.4795 310.606C53.4177 310.499 53.3853 310.377 53.3853 310.254C53.3853 310.131 53.4177 310.009 53.4795 309.902L71.149 279.991C71.2118 279.885 71.3014 279.798 71.4088 279.737C71.5161 279.677 71.6375 279.646 71.7607 279.647C71.8841 279.648 72.0049 279.682 72.1111 279.745C72.2172 279.808 72.3049 279.898 72.3654 280.005L89.1349 309.916C89.195 310.023 89.2261 310.144 89.2251 310.267C89.2241 310.389 89.191 310.51 89.1292 310.616C89.0674 310.721 88.9789 310.809 88.8726 310.87C88.7663 310.932 88.6458 310.964 88.5232 310.964V310.957ZM55.3216 309.551H87.3209L71.7185 281.749L55.3216 309.551Z" fill="#FFF7F2"/>
<path d="M179.437 24.6094C178.664 23.5617 177.025 23.0414 176.034 23.9063C174.515 25.1789 172.666 34.9664 173.222 43.1227C173.306 44.3743 173.58 45.8368 174.712 46.3852C175.189 46.5642 175.71 46.5927 176.204 46.467C176.698 46.3413 177.142 46.0674 177.475 45.6821C179.887 43.1508 181.624 27.6047 179.437 24.6094Z" fill="#FFB020"/>
<path d="M255.529 111.15C256.838 111.106 258.104 110.673 259.165 109.905C260.149 109.055 260.529 107.381 259.615 106.453C258.208 105.047 248.322 104.013 240.236 105.237C238.992 105.427 237.558 105.82 237.108 106.995C235.132 112.134 250.108 111.797 255.529 111.15Z" fill="#FFB020"/>
<path d="M114.279 111.15C115.589 111.107 116.858 110.673 117.921 109.905C118.905 109.055 119.285 107.381 118.371 106.453C116.965 105.047 107.072 104.013 98.9857 105.237C97.7482 105.427 96.3139 105.82 95.8639 106.995C93.8881 112.113 108.822 111.797 114.279 111.15Z" fill="#FFB020"/>
<path d="M135.879 64.6102C136.313 64.5265 136.698 64.2754 136.949 63.9111C137.2 63.5468 137.298 63.0984 137.222 62.6625C136.814 61.3828 131.161 57.6774 125.901 55.9055C125.093 55.6383 124.101 55.4274 123.469 55.9969C123.232 56.2487 123.078 56.5666 123.026 56.9082C122.975 57.2498 123.029 57.599 123.18 57.9094C123.503 58.5222 123.968 59.0481 124.537 59.4422C126.935 61.3196 133.594 65.1657 135.879 64.6102Z" fill="#FFB020"/>
<path d="M223.01 64.8423C222.858 65.2575 222.874 65.7157 223.056 66.119C223.237 66.5223 223.569 66.8388 223.98 67.0009C224.448 67.0635 224.924 66.9903 225.351 66.7899C229.096 65.403 232.57 63.3734 235.617 60.7923C236.264 60.2368 236.953 59.4985 236.798 58.6829C236.703 58.3497 236.509 58.0534 236.242 57.8336C235.974 57.6137 235.646 57.4807 235.3 57.4524C234.61 57.4118 233.92 57.5397 233.29 57.8251C230.442 58.8868 223.713 62.5782 223.01 64.8423Z" fill="#FFB020"/>
<path d="M225.85 142.298C225.414 142.242 224.973 142.356 224.62 142.619C224.267 142.881 224.03 143.271 223.959 143.705C223.959 145.041 228.136 150.349 232.565 153.689C233.268 154.202 234.119 154.709 234.9 154.392C235.205 154.228 235.453 153.974 235.61 153.665C235.767 153.356 235.826 153.006 235.779 152.663C235.664 151.979 235.387 151.332 234.97 150.778C233.163 148.05 228.129 142.488 225.85 142.298Z" fill="#FFB020"/>
<path d="M136.005 142.137C136.037 141.696 135.895 141.26 135.61 140.923C135.325 140.585 134.919 140.372 134.48 140.33C133.137 140.386 128.074 144.865 124.98 149.47C124.509 150.173 124.045 151.08 124.425 151.84C124.604 152.136 124.871 152.37 125.188 152.509C125.505 152.649 125.857 152.688 126.197 152.62C126.874 152.475 127.505 152.163 128.032 151.713C130.781 149.688 135.942 144.387 136.005 142.137Z" fill="#FFB020"/>
<path d="M222.926 105.068C222.926 77.7656 202.176 55.6312 176.576 55.6312C150.975 55.6312 130.226 77.7656 130.226 105.068C130.226 122.836 139.022 138.41 152.212 147.122C158.597 152.198 158.751 163.484 158.751 163.484H191.876C191.763 154.948 200.953 147.122 200.953 147.122C214.137 138.41 222.926 122.836 222.926 105.068Z" fill="#FFB020"/>
<path d="M168.848 168.005H168.785C168.6 167.987 168.429 167.896 168.31 167.752C168.191 167.609 168.135 167.424 168.152 167.238C169.2 155.988 170.522 133.425 169.179 117.352C166.458 117.274 164.257 117.113 163.216 117.021C151.516 116.044 150.637 94.4578 163.455 97.9031C167.456 98.9789 169.53 106.341 170.487 115.988C174.124 116.077 177.762 115.919 181.378 115.516C181.702 109.891 182.229 105.729 183.052 104.316C188.241 95.3578 207.338 113.351 182.707 116.782C182.004 131.611 182.433 156.073 182.791 167.28C182.791 167.467 182.717 167.646 182.585 167.778C182.454 167.91 182.275 167.984 182.088 167.984C181.902 167.984 181.723 167.91 181.591 167.778C181.459 167.646 181.385 167.467 181.385 167.28C181.329 165.558 180.387 135.014 181.301 116.916C177.753 117.282 174.186 117.426 170.62 117.345C172.287 136.329 169.917 162.935 169.538 167.33C169.53 167.509 169.455 167.679 169.327 167.804C169.199 167.929 169.028 168.001 168.848 168.005V168.005ZM163.329 115.622C165.22 115.784 167.14 115.889 169.052 115.952C168.18 106.868 166.38 100.146 163.09 99.2602C152.36 96.3844 153.605 114.806 163.329 115.622V115.622ZM184.282 105.019C183.579 106.242 183.101 110.074 182.798 115.334C200.482 112.725 192.277 103.38 187.404 103.24C186.768 103.205 186.135 103.354 185.581 103.669C185.027 103.985 184.576 104.453 184.282 105.019Z" fill="#FFF7F2"/>
<path d="M152.677 69.9821C152.677 69.9821 143.846 79.2703 146.468 81.661C149.091 84.0516 157.992 73.8282 157.992 73.8282C157.992 73.8282 163.688 68.4422 160.692 66.4172C157.697 64.3922 152.677 69.9821 152.677 69.9821Z" fill="#FFF7F2"/>
<path d="M158.745 163.484V184.345C158.745 186.52 159.173 188.673 160.005 190.682C160.837 192.691 162.057 194.516 163.595 196.054C165.132 197.592 166.958 198.811 168.966 199.644C170.975 200.476 173.129 200.904 175.303 200.904C177.478 200.905 179.632 200.477 181.642 199.646C183.652 198.814 185.478 197.594 187.016 196.057C188.555 194.519 189.775 192.693 190.608 190.684C191.44 188.674 191.869 186.52 191.869 184.345V163.484H158.745Z" fill="#402E32"/>
<path d="M334.23 155.482V144.556L325.251 142.566C324.501 140.539 323.544 138.596 322.397 136.765L327.199 129.586L320.625 122.653L311.484 126.345C310.037 125.545 308.528 124.866 306.97 124.313L304.882 116.719L293.203 115.959L290.264 123.511C288.963 123.825 287.687 124.234 286.446 124.734L277.79 120.938L268.059 130.226L272.13 136.737C271.603 137.581 271.111 138.438 270.668 139.331H263.868L261.625 152.691L267.335 154.8C267.394 156.415 267.579 158.023 267.89 159.609L262.968 163.758L267.89 175.711L275.062 174.263C276.313 175.69 277.697 176.994 279.197 178.158L278.493 184.366L289.322 188.437L293.027 184.064C294.318 184.247 295.619 184.348 296.922 184.366L299.201 189.345L311.779 186.799L312.145 180.288C313.58 179.434 314.944 178.465 316.223 177.391L323.613 179.163L330.947 169.137L325.61 163.427C326.166 161.76 326.575 160.047 326.833 158.309L334.23 155.482ZM298.125 167.716C295.315 167.715 292.568 166.881 290.233 165.319C287.897 163.757 286.077 161.537 285.002 158.941C283.927 156.345 283.646 153.488 284.195 150.732C284.744 147.976 286.097 145.445 288.084 143.458C290.071 141.471 292.602 140.118 295.358 139.57C298.114 139.021 300.97 139.302 303.567 140.376C306.163 141.451 308.382 143.271 309.944 145.607C311.506 147.943 312.341 150.689 312.342 153.499C312.343 155.367 311.976 157.216 311.262 158.941C310.547 160.666 309.5 162.234 308.18 163.554C306.859 164.875 305.292 165.922 303.567 166.636C301.841 167.35 299.992 167.717 298.125 167.716Z" fill="#A97155"/>
<path d="M134.958 224.768C127.392 231.645 119.144 234.091 107.346 236.25C107.036 244.076 107.557 250.678 109.666 258.216C112.057 266.752 114.082 272.784 118.715 280.343C122.674 286.812 127.919 293.576 134.789 297.556C135.904 298.189 137.158 298.54 138.44 298.576C139.722 298.613 140.994 298.335 142.143 297.766C161.458 288.345 172.898 260.156 171.858 237.122C162.183 235.547 150.764 232.327 144.527 225.338C143.943 224.662 143.229 224.11 142.428 223.715C141.626 223.319 140.754 223.088 139.862 223.035C138.971 222.982 138.077 223.108 137.235 223.406C136.392 223.703 135.618 224.166 134.958 224.768Z" fill="#7AD001"/>
<path d="M123.448 259.137L133.657 276.504C134.494 277.91 135.464 278.501 137.362 276.673C145.772 268.574 153.312 259.619 159.862 249.954C160.987 248.288 162.084 246.009 160.861 244.413C160.395 243.909 159.786 243.56 159.116 243.413C158.446 243.266 157.747 243.328 157.113 243.591C155.862 244.145 154.746 244.966 153.844 245.995C147.486 252.374 141.842 259.425 137.011 267.026C135.559 263.334 133.199 260.069 130.148 257.534C124.144 252.57 122.063 258.968 123.448 259.137Z" fill="#FFF7F2"/>
<path d="M296.458 210.234C300.544 229.577 301.598 248.794 309.213 265.416C316.16 280.582 329.231 293.33 341.557 307.28C343.322 309.277 343.666 310.275 342.422 312.356C338.618 318.853 329.54 327.825 322.615 330.806C315.689 333.788 308.208 335.166 300.776 336.333C298.069 336.762 297.119 336.452 295.404 333.949C288.14 323.402 276.715 304.418 271.237 292.795C269.522 289.167 268.79 288.689 265.261 287.318C253.026 282.565 242.015 269.409 240.792 268.854C241.495 260.466 249.778 254.327 255.115 247.816C270.604 228.98 268.636 210.607 296.458 210.234Z" fill="#FFAD92"/>
<path d="M296.459 210.234C296.459 210.234 296.037 203.955 291.994 201.094C287.951 198.232 252.844 186.328 243.858 187.917C234.872 189.506 226.793 222.279 226.793 231.708C226.793 241.137 235.266 241.812 238.106 226.54L246.544 211.268C246.544 211.268 257.055 220.254 265.275 222.054L260.241 244.287L296.459 210.234Z" fill="#FFAD92"/>
<path d="M246.002 211.753C242.754 207.577 242.487 199.8 242.487 199.441C242.481 199.255 242.55 199.074 242.678 198.938C242.806 198.802 242.982 198.723 243.169 198.717C243.355 198.712 243.536 198.78 243.672 198.908C243.808 199.036 243.887 199.213 243.893 199.399C243.893 199.477 244.153 207.077 247.113 210.888C247.212 211.036 247.251 211.215 247.223 211.39C247.195 211.565 247.102 211.724 246.963 211.833C246.823 211.942 246.647 211.995 246.47 211.98C246.294 211.965 246.129 211.884 246.009 211.753H246.002Z" fill="#ED6C4D"/>
<path d="M264.965 222.729C263.791 222.131 265.394 220.908 269.058 213.089C269.1 213.006 269.157 212.933 269.228 212.873C269.298 212.812 269.38 212.766 269.468 212.738C269.556 212.709 269.649 212.698 269.742 212.705C269.834 212.712 269.924 212.738 270.007 212.78C270.089 212.822 270.163 212.88 270.223 212.95C270.284 213.02 270.329 213.102 270.358 213.19C270.387 213.278 270.398 213.371 270.391 213.464C270.384 213.556 270.358 213.646 270.316 213.729L265.915 222.419C265.873 222.502 265.815 222.576 265.745 222.637C265.674 222.697 265.593 222.743 265.504 222.772C265.416 222.801 265.323 222.812 265.231 222.804C265.138 222.797 265.048 222.771 264.965 222.729Z" fill="#ED6C4D"/>
<path d="M198.717 234.675L322.671 207.253C323.451 207.08 324.258 207.069 325.042 207.221C325.826 207.372 326.57 207.683 327.229 208.134C327.888 208.585 328.448 209.166 328.873 209.842C329.299 210.517 329.581 211.273 329.702 212.062C329.932 213.549 329.578 215.067 328.715 216.299C327.851 217.531 326.545 218.381 325.069 218.672L200.292 243.352C197.418 243.395 194.559 242.918 191.854 241.945C191.854 241.945 194.899 236.475 198.717 234.675Z" fill="#E79F79"/>
<path d="M214.973 232.868C212.815 235.364 210.516 238.31 210.98 241.58C211.634 246.136 224.283 260.698 240.82 268.882C244.708 270.809 246.073 270 247.901 267.75C255.305 258.652 262.947 249.068 265.289 237.579C261.07 241.01 255.178 241.924 249.82 241.01C238.275 239.027 231.68 230.463 224.712 229.823C221.119 229.507 217.097 230.414 214.973 232.868Z" fill="#FFAD92"/>
<path d="M219.072 246.488C224.922 235.666 224.81 233.902 225.991 234.499C227.172 235.097 225.668 236.053 220.324 247.156C220.235 247.322 220.084 247.445 219.904 247.5C219.724 247.555 219.53 247.536 219.364 247.447C219.198 247.359 219.074 247.208 219.019 247.028C218.965 246.848 218.984 246.654 219.072 246.488Z" fill="#ED6C4D"/>
</svg>
