<svg width="352" height="340" viewBox="0 0 352 340" fill="none" xmlns="http://www.w3.org/2000/svg">
<path d="M347.021 288.955C335.251 275.659 321.709 262.545 315.866 248.342V222.566L323.509 221.054C327.994 220.165 331.988 217.642 334.718 213.974C337.447 210.306 338.715 205.754 338.277 201.203C337.839 196.652 335.725 192.426 332.347 189.346C328.968 186.265 324.565 184.55 319.993 184.534L320.12 182.22L324.852 183.359L343.302 158.131L340.489 155.087L342.894 154.173V124.438L336.172 122.947L339.343 118.201L319.902 97.761L315.929 99.3641V90.3571C324.683 85.9274 335.096 76.3719 335.096 59.9821C335.096 35.9915 320.063 28.5805 318.348 27.8141L315.901 26.7243H188.698C188.983 23.785 189.075 20.8302 188.973 17.879C188.22 -2.30776 163.913 -4.95854 158.977 12.1907C157.616 16.9254 156.814 21.8031 156.587 26.7243H31.8593L30.0101 27.3079C24.3851 29.0797 5.87882 38.9446 3.29132 91.454C1.99054 117.329 3.29132 179.141 4.69757 228.563C1.84273 232.432 0.304817 237.115 0.310072 241.923V312.798C0.310072 318.765 2.6806 324.488 6.90017 328.708C11.1197 332.927 16.8427 335.298 22.8101 335.298H116.234C119.488 335.294 122.703 334.585 125.657 333.221C128.611 331.857 131.235 329.869 133.348 327.395L279.599 328.941C284.682 336.528 289.337 340.276 298.78 338.785C306.366 337.59 315.163 336.008 323.614 332.394C333.514 328.175 344.469 317.031 349.327 308.734C353.188 302.188 352.618 295.276 347.021 288.955Z" fill="#E79F79"/>
<path d="M33.7717 39.3243C33.7717 39.3243 18.1975 44.2462 15.7998 92.0587C13.4022 139.871 20.0186 313.585 20.0186 313.585L303.266 316.609V39.3243H33.7717Z" fill="#EAE5DB"/>
<path d="M120.615 231.98H18.3454C15.2932 231.98 12.8188 234.455 12.8188 237.507V317.185C12.8188 320.237 15.2932 322.712 18.3454 322.712H120.615C123.667 322.712 126.141 320.237 126.141 317.185V237.507C126.141 234.455 123.667 231.98 120.615 231.98Z" fill="#402E32"/>
<path d="M111.537 152.45H41.0068C38.5604 152.45 36.5771 154.433 36.5771 156.88V210.395C36.5771 212.841 38.5604 214.824 41.0068 214.824H111.537C113.984 214.824 115.967 212.841 115.967 210.395V156.88C115.967 154.433 113.984 152.45 111.537 152.45Z" fill="#A97155"/>
<path d="M107.797 166.695V200.593C107.796 201.636 107.589 202.669 107.189 203.633C106.789 204.597 106.203 205.472 105.465 206.209C104.726 206.946 103.85 207.531 102.885 207.929C101.921 208.328 100.888 208.532 99.8443 208.531H50.8436C48.7382 208.531 46.7191 207.695 45.2303 206.206C43.7416 204.717 42.9053 202.698 42.9053 200.593V166.695C42.9044 165.652 43.109 164.619 43.5075 163.655C43.906 162.691 44.4906 161.815 45.2279 161.078C45.9651 160.34 46.8405 159.754 47.8041 159.355C48.7677 158.956 49.8005 158.75 50.8436 158.75H99.8513C101.959 158.75 103.979 159.587 105.47 161.077C106.96 162.567 107.797 164.588 107.797 166.695Z" fill="#FFF7F2"/>
<path d="M107.797 182.797V200.593C107.796 201.636 107.589 202.669 107.189 203.633C106.789 204.597 106.203 205.472 105.465 206.209C104.726 206.946 103.85 207.531 102.885 207.929C101.921 208.328 100.888 208.532 99.8444 208.531H50.8436C48.7382 208.531 46.7191 207.695 45.2303 206.206C43.7416 204.717 42.9053 202.698 42.9053 200.593V189.02C47.6912 185.105 52.6131 181.355 57.6709 177.77C71.2061 168.305 74.4475 175.66 79.2709 181.531C81.535 184.288 85.2897 186.706 88.5311 185.173C90.8655 184.063 91.9483 181.313 94.0154 179.773C96.3428 178.051 99.6405 178.114 102.305 179.211C104.317 180.102 106.172 181.313 107.797 182.797Z" fill="#7AD001"/>
<path d="M198.901 259.206L176.647 258.657C170.565 258.502 167.506 259.747 166.283 268.606C165.03 277.423 164.244 286.299 163.927 295.198C163.744 300.528 164.947 303.938 174.235 304.733C191.958 306.257 209.791 305.937 227.447 303.777C231.35 303.298 232.608 302.37 233.621 298.208C235.92 288.726 236.988 278.987 236.799 269.232C236.679 262.904 234.753 261.294 229.388 260.52C219.296 259.055 209.081 258.614 198.901 259.206Z" fill="#FF605B"/>
<path d="M193.325 272.15C191.215 294.249 190.716 294.882 192.27 296.162C194.506 298.004 204.884 294.629 211.367 288.336C213.786 285.973 214.123 284.117 211.599 280.96C208.296 276.955 204.409 273.47 200.068 270.624C198.767 269.745 197.304 268.866 195.743 269.028C194.182 269.19 192.762 270.976 193.325 272.15Z" fill="#FFF7F2"/>
<path d="M33.7718 39.3243C33.7718 39.3243 47.8343 40.5197 46.0483 60.5868C44.2624 80.654 29.8765 80.647 29.8765 80.647H306.261C306.261 80.647 322.433 76.4986 322.433 59.9822C322.433 43.4657 313.144 39.3243 313.144 39.3243H33.7718Z" fill="#A97155"/>
<path d="M67.7539 254.023C71.8896 254.023 75.2422 250.671 75.2422 246.535C75.2422 242.399 71.8896 239.047 67.7539 239.047C63.6182 239.047 60.2656 242.399 60.2656 246.535C60.2656 250.671 63.6182 254.023 67.7539 254.023Z" fill="#FFB020"/>
<path d="M83.2508 267.179H52.25C52.25 265.144 52.6507 263.13 53.4294 261.25C54.208 259.37 55.3492 257.662 56.7879 256.223C58.2266 254.785 59.9346 253.644 61.8143 252.865C63.6941 252.086 65.7087 251.686 67.7434 251.686C69.778 251.686 71.7927 252.086 73.6724 252.865C75.5522 253.644 77.2601 254.785 78.6988 256.223C80.1375 257.662 81.2787 259.37 82.0574 261.25C82.836 263.13 83.2367 265.144 83.2367 267.179H83.2508Z" fill="#FFB020"/>
<path d="M40.114 305.675C43.108 305.675 45.5351 303.248 45.5351 300.254C45.5351 297.26 43.108 294.833 40.114 294.833C37.12 294.833 34.6929 297.26 34.6929 300.254C34.6929 303.248 37.12 305.675 40.114 305.675Z" fill="#FFB020"/>
<path d="M51.3431 315.209H28.8923C28.7905 313.673 29.0053 312.132 29.5233 310.681C30.0414 309.231 30.8516 307.903 31.904 306.778C32.9563 305.654 34.2283 304.757 35.6412 304.145C37.054 303.532 38.5777 303.216 40.1177 303.216C41.6577 303.216 43.1813 303.532 44.5942 304.145C46.007 304.757 47.279 305.654 48.3314 306.778C49.3837 307.903 50.194 309.231 50.7121 310.681C51.2301 312.132 51.4449 313.673 51.3431 315.209Z" fill="#FFB020"/>
<path d="M94.4724 305.675C97.4664 305.675 99.8935 303.248 99.8935 300.254C99.8935 297.26 97.4664 294.833 94.4724 294.833C91.4784 294.833 89.0513 297.26 89.0513 300.254C89.0513 303.248 91.4784 305.675 94.4724 305.675Z" fill="#FFB020"/>
<path d="M105.687 315.209H83.2507C83.1489 313.673 83.3637 312.132 83.8817 310.681C84.3998 309.231 85.21 307.903 86.2624 306.778C87.3147 305.654 88.5867 304.757 89.9996 304.145C91.4124 303.532 92.9361 303.216 94.4761 303.216C96.0161 303.216 97.5397 303.532 98.9526 304.145C100.365 304.757 101.637 305.654 102.69 306.778C103.742 307.903 104.552 309.231 105.07 310.681C105.589 312.132 105.803 313.673 105.701 315.209H105.687Z" fill="#FFB020"/>
<path d="M84.5232 300.957C48.3826 300.816 49.8662 301.281 49.4795 300.606C49.4177 300.499 49.3853 300.377 49.3853 300.254C49.3853 300.131 49.4177 300.009 49.4795 299.902L67.149 269.991C67.2118 269.885 67.3014 269.798 67.4088 269.737C67.5161 269.677 67.6375 269.646 67.7607 269.647C67.8841 269.648 68.0049 269.682 68.1111 269.745C68.2172 269.808 68.3049 269.898 68.3654 270.005L85.1349 299.916C85.195 300.023 85.2261 300.144 85.2251 300.267C85.2241 300.389 85.191 300.51 85.1292 300.616C85.0674 300.721 84.9789 300.809 84.8726 300.87C84.7663 300.932 84.6458 300.964 84.5232 300.964V300.957ZM51.3216 299.551H83.3209L67.7185 271.749L51.3216 299.551Z" fill="#FFF7F2"/>
<path d="M175.437 14.6094C174.664 13.5617 173.025 13.0414 172.034 13.9063C170.515 15.1789 168.666 24.9664 169.222 33.1227C169.306 34.3743 169.58 35.8368 170.712 36.3852C171.189 36.5642 171.71 36.5927 172.204 36.467C172.698 36.3413 173.142 36.0674 173.475 35.6821C175.887 33.1508 177.624 17.6047 175.437 14.6094Z" fill="#FFB020"/>
<path d="M251.529 101.15C252.838 101.106 254.104 100.673 255.165 99.9055C256.149 99.0547 256.529 97.3813 255.615 96.4531C254.208 95.0469 244.322 94.0133 236.236 95.2367C234.992 95.4266 233.558 95.8203 233.108 96.9945C231.132 102.134 246.108 101.797 251.529 101.15Z" fill="#FFB020"/>
<path d="M110.279 101.15C111.589 101.107 112.858 100.673 113.921 99.9055C114.905 99.0547 115.285 97.3813 114.371 96.4531C112.965 95.0469 103.072 94.0133 94.9857 95.2367C93.7482 95.4266 92.3139 95.8203 91.8639 96.9945C89.8881 102.113 104.822 101.797 110.279 101.15Z" fill="#FFB020"/>
<path d="M131.879 54.6102C132.313 54.5265 132.698 54.2754 132.949 53.9111C133.2 53.5468 133.298 53.0984 133.222 52.6625C132.814 51.3828 127.161 47.6774 121.901 45.9055C121.093 45.6383 120.101 45.4274 119.469 45.9969C119.232 46.2487 119.078 46.5666 119.026 46.9082C118.975 47.2498 119.029 47.599 119.18 47.9094C119.503 48.5222 119.968 49.0481 120.537 49.4422C122.935 51.3196 129.594 55.1657 131.879 54.6102Z" fill="#FFB020"/>
<path d="M219.01 54.8423C218.858 55.2575 218.874 55.7157 219.056 56.119C219.237 56.5223 219.569 56.8388 219.98 57.0009C220.448 57.0635 220.924 56.9903 221.351 56.7899C225.096 55.403 228.57 53.3734 231.617 50.7923C232.264 50.2368 232.953 49.4985 232.798 48.6829C232.703 48.3497 232.509 48.0534 232.242 47.8336C231.974 47.6137 231.646 47.4807 231.3 47.4524C230.61 47.4118 229.92 47.5397 229.29 47.8251C226.442 48.8868 219.713 52.5782 219.01 54.8423Z" fill="#FFB020"/>
<path d="M221.85 132.298C221.414 132.242 220.973 132.356 220.62 132.619C220.267 132.881 220.03 133.271 219.959 133.705C219.959 135.041 224.136 140.349 228.565 143.689C229.268 144.202 230.119 144.709 230.9 144.392C231.205 144.228 231.453 143.974 231.61 143.665C231.767 143.356 231.826 143.006 231.779 142.663C231.664 141.979 231.387 141.332 230.97 140.778C229.163 138.05 224.129 132.488 221.85 132.298Z" fill="#FFB020"/>
<path d="M132.005 132.137C132.037 131.696 131.895 131.26 131.61 130.923C131.325 130.585 130.919 130.372 130.48 130.33C129.137 130.386 124.074 134.865 120.98 139.47C120.509 140.173 120.045 141.08 120.425 141.84C120.604 142.136 120.871 142.37 121.188 142.509C121.505 142.649 121.857 142.688 122.197 142.62C122.874 142.475 123.505 142.163 124.032 141.713C126.781 139.688 131.942 134.387 132.005 132.137Z" fill="#FFB020"/>
<path d="M218.926 95.068C218.926 67.7656 198.176 45.6312 172.576 45.6312C146.975 45.6312 126.226 67.7656 126.226 95.068C126.226 112.836 135.022 128.41 148.212 137.122C154.597 142.198 154.751 153.484 154.751 153.484H187.876C187.763 144.948 196.953 137.122 196.953 137.122C210.137 128.41 218.926 112.836 218.926 95.068Z" fill="#FFB020"/>
<path d="M164.848 158.005H164.785C164.6 157.987 164.429 157.896 164.31 157.752C164.191 157.609 164.135 157.424 164.152 157.238C165.2 145.988 166.522 123.425 165.179 107.352C162.458 107.274 160.257 107.113 159.216 107.021C147.516 106.044 146.637 84.4578 159.455 87.9031C163.456 88.9789 165.53 96.3406 166.487 105.988C170.124 106.077 173.762 105.919 177.378 105.516C177.702 99.8914 178.229 95.7289 179.052 94.3156C184.241 85.3578 203.338 103.351 178.707 106.782C178.004 121.611 178.433 146.073 178.791 157.28C178.791 157.467 178.717 157.646 178.585 157.778C178.454 157.91 178.275 157.984 178.088 157.984C177.902 157.984 177.723 157.91 177.591 157.778C177.459 157.646 177.385 157.467 177.385 157.28C177.329 155.558 176.387 125.014 177.301 106.916C173.753 107.282 170.186 107.426 166.62 107.345C168.287 126.329 165.917 152.935 165.538 157.33C165.53 157.509 165.455 157.679 165.327 157.804C165.199 157.929 165.028 158.001 164.848 158.005ZM159.329 105.622C161.22 105.784 163.14 105.889 165.052 105.952C164.18 96.868 162.38 90.1461 159.09 89.2602C148.36 86.3844 149.605 104.806 159.329 105.622ZM180.282 95.0188C179.579 96.2422 179.101 100.074 178.798 105.334C196.482 102.725 188.277 93.3805 183.404 93.2399C182.768 93.2045 182.135 93.3536 181.581 93.6691C181.027 93.9847 180.576 94.4533 180.282 95.0188Z" fill="#FFF7F2"/>
<path d="M148.677 59.9821C148.677 59.9821 139.846 69.2703 142.468 71.661C145.091 74.0516 153.992 63.8282 153.992 63.8282C153.992 63.8282 159.688 58.4422 156.692 56.4172C153.697 54.3922 148.677 59.9821 148.677 59.9821Z" fill="#FFF7F2"/>
<path d="M154.745 153.484V174.345C154.745 176.52 155.173 178.673 156.005 180.682C156.837 182.691 158.057 184.516 159.595 186.054C161.132 187.592 162.958 188.811 164.966 189.644C166.975 190.476 169.129 190.904 171.303 190.904C173.478 190.905 175.632 190.477 177.642 189.646C179.652 188.814 181.478 187.594 183.016 186.057C184.555 184.519 185.775 182.693 186.608 180.684C187.44 178.674 187.869 176.52 187.869 174.345V153.484H154.745Z" fill="#402E32"/>
<path d="M330.23 145.482V134.556L321.251 132.566C320.501 130.539 319.544 128.596 318.397 126.765L323.199 119.586L316.625 112.653L307.484 116.345C306.037 115.545 304.528 114.866 302.97 114.313L300.882 106.719L289.203 105.959L286.264 113.511C284.963 113.825 283.687 114.234 282.446 114.734L273.79 110.938L264.059 120.226L268.13 126.737C267.603 127.581 267.111 128.438 266.668 129.331H259.868L257.625 142.691L263.335 144.8C263.394 146.415 263.579 148.023 263.89 149.609L258.968 153.758L263.89 165.711L271.062 164.263C272.313 165.69 273.697 166.994 275.197 168.158L274.493 174.366L285.322 178.437L289.027 174.064C290.318 174.247 291.619 174.348 292.922 174.366L295.201 179.345L307.779 176.799L308.145 170.288C309.58 169.434 310.944 168.465 312.223 167.391L319.613 169.163L326.947 159.137L321.61 153.427C322.166 151.76 322.575 150.047 322.833 148.309L330.23 145.482ZM294.125 157.716C291.315 157.715 288.568 156.881 286.233 155.319C283.897 153.757 282.077 151.537 281.002 148.941C279.927 146.345 279.646 143.488 280.195 140.732C280.744 137.976 282.097 135.445 284.084 133.458C286.071 131.471 288.602 130.118 291.358 129.57C294.114 129.021 296.97 129.302 299.567 130.376C302.163 131.451 304.382 133.271 305.944 135.607C307.506 137.943 308.341 140.689 308.342 143.499C308.343 145.367 307.976 147.216 307.262 148.941C306.547 150.666 305.5 152.234 304.18 153.554C302.859 154.875 301.292 155.922 299.567 156.636C297.841 157.35 295.992 157.717 294.125 157.716Z" fill="#A97155"/>
<path d="M130.958 214.768C123.392 221.645 115.144 224.091 103.346 226.25C103.036 234.076 103.557 240.678 105.666 248.216C108.057 256.752 110.082 262.784 114.715 270.343C118.674 276.812 123.919 283.576 130.789 287.556C131.904 288.189 133.158 288.54 134.44 288.576C135.722 288.613 136.994 288.335 138.143 287.766C157.458 278.345 168.898 250.156 167.858 227.122C158.183 225.547 146.764 222.327 140.527 215.338C139.943 214.662 139.229 214.11 138.428 213.715C137.626 213.319 136.754 213.088 135.862 213.035C134.971 212.982 134.077 213.108 133.235 213.406C132.392 213.703 131.618 214.166 130.958 214.768Z" fill="#7AD001"/>
<path d="M119.448 249.137L129.657 266.504C130.494 267.91 131.464 268.501 133.362 266.673C141.772 258.574 149.312 249.619 155.862 239.954C156.987 238.288 158.084 236.009 156.861 234.413C156.395 233.909 155.786 233.56 155.116 233.413C154.446 233.266 153.747 233.328 153.113 233.591C151.862 234.145 150.746 234.966 149.844 235.995C143.486 242.374 137.842 249.425 133.011 257.026C131.559 253.334 129.199 250.069 126.148 247.534C120.144 242.57 118.063 248.968 119.448 249.137Z" fill="#FFF7F2"/>
<path d="M292.458 200.234C296.544 219.577 297.598 238.794 305.213 255.416C312.16 270.582 325.231 283.33 337.557 297.28C339.322 299.277 339.666 300.275 338.422 302.356C334.618 308.853 325.54 317.825 318.615 320.806C311.689 323.788 304.208 325.166 296.776 326.333C294.069 326.762 293.119 326.452 291.404 323.949C284.14 313.402 272.715 294.418 267.237 282.795C265.522 279.167 264.79 278.689 261.261 277.318C249.026 272.565 238.015 259.409 236.792 258.854C237.495 250.466 245.778 244.327 251.115 237.816C266.604 218.98 264.636 200.607 292.458 200.234Z" fill="#FFAD92"/>
<path d="M292.459 200.234C292.459 200.234 292.037 193.955 287.994 191.094C283.951 188.232 248.844 176.328 239.858 177.917C230.872 179.506 222.793 212.279 222.793 221.708C222.793 231.137 231.266 231.812 234.106 216.54L242.544 201.268C242.544 201.268 253.055 210.254 261.275 212.054L256.241 234.287L292.459 200.234Z" fill="#FFAD92"/>
<path d="M242.002 201.753C238.754 197.577 238.487 189.8 238.487 189.441C238.481 189.255 238.55 189.074 238.678 188.938C238.806 188.802 238.982 188.723 239.169 188.717C239.355 188.712 239.536 188.78 239.672 188.908C239.808 189.036 239.887 189.213 239.893 189.399C239.893 189.477 240.153 197.077 243.113 200.888C243.212 201.036 243.251 201.215 243.223 201.39C243.195 201.565 243.102 201.724 242.963 201.833C242.823 201.942 242.647 201.995 242.47 201.98C242.294 201.965 242.129 201.884 242.009 201.753H242.002Z" fill="#ED6C4D"/>
<path d="M260.965 212.729C259.791 212.131 261.394 210.908 265.058 203.089C265.1 203.006 265.157 202.933 265.228 202.873C265.298 202.812 265.38 202.766 265.468 202.738C265.556 202.709 265.649 202.698 265.742 202.705C265.834 202.712 265.924 202.738 266.007 202.78C266.089 202.822 266.163 202.88 266.223 202.95C266.284 203.02 266.329 203.102 266.358 203.19C266.387 203.278 266.398 203.371 266.391 203.464C266.384 203.556 266.358 203.646 266.316 203.729L261.915 212.419C261.873 212.502 261.815 212.576 261.745 212.637C261.674 212.697 261.593 212.743 261.504 212.772C261.416 212.801 261.323 212.812 261.231 212.804C261.138 212.797 261.048 212.771 260.965 212.729Z" fill="#ED6C4D"/>
<path d="M194.717 224.675L318.671 197.253C319.451 197.08 320.258 197.069 321.042 197.221C321.826 197.372 322.57 197.683 323.229 198.134C323.888 198.585 324.448 199.166 324.873 199.842C325.299 200.517 325.581 201.273 325.702 202.062C325.932 203.549 325.578 205.067 324.715 206.299C323.851 207.531 322.545 208.381 321.069 208.672L196.292 233.352C193.418 233.395 190.559 232.918 187.854 231.945C187.854 231.945 190.899 226.475 194.717 224.675Z" fill="#E79F79"/>
<path d="M210.973 222.868C208.815 225.364 206.516 228.31 206.98 231.58C207.634 236.136 220.283 250.698 236.82 258.882C240.708 260.809 242.073 260 243.901 257.75C251.305 248.652 258.947 239.068 261.289 227.579C257.07 231.01 251.178 231.924 245.82 231.01C234.275 229.027 227.68 220.463 220.712 219.823C217.119 219.507 213.097 220.414 210.973 222.868Z" fill="#FFAD92"/>
<path d="M215.072 236.488C220.922 225.666 220.81 223.902 221.991 224.499C223.172 225.097 221.668 226.053 216.324 237.156C216.235 237.322 216.084 237.445 215.904 237.5C215.724 237.555 215.53 237.536 215.364 237.447C215.198 237.359 215.074 237.208 215.019 237.028C214.965 236.848 214.984 236.654 215.072 236.488Z" fill="#ED6C4D"/>
</svg>
