<svg width="352" height="296" viewBox="0 0 352 296" fill="none" xmlns="http://www.w3.org/2000/svg">
<path d="M349.039 214.937C348.125 174.367 347.211 132.391 346.578 92.664L351.781 37.539C351.781 37.4687 344.328 5.89841 344.328 5.96873C342.922 0.0624775 334.906 -0.992211 332.023 4.28123L321.265 23.8984L320.281 20.0312C320 18.8359 318.804 18.1328 317.609 18.3437C292.015 23.4765 269.937 28.1875 238.789 36.414C184.297 37.4687 141.758 38.3125 102.523 39.0156C98.1638 30.2265 91.6248 23.4765 83.7498 19.8906C61.2498 9.62498 29.3279 13.2109 17.7263 40.5625L4.99978 40.7734C2.74978 40.7734 0.921658 42.5312 0.921658 44.7812C-1.32834 198.906 3.17166 292 3.03103 288.062C3.10135 291.016 5.6326 293.406 8.65603 293.266C36.2888 292.281 100.976 287.008 161.164 291.508C208.906 295.094 211.929 297.555 268.742 291.648C296.445 288.766 308.539 285.109 334.765 254.523C347.703 239.336 349.461 232.516 349.039 214.937Z" fill="#E79F79"/>
<path d="M336.523 226.891C335.398 234.906 330.828 240.391 325.484 246.648C301.578 274.562 292.297 276.953 267.477 279.555C212.141 285.32 209.68 283 162.078 279.414C113.141 275.758 63.9921 278.289 14.9843 280.75C12.3124 204.391 11.8906 128.523 13.0156 52.7266C120.102 50.8984 227.047 48.8594 333.852 46.6797C334.836 169.938 337.93 215.219 336.523 226.891Z" fill="#A97155"/>
<path d="M336.523 226.891C335.398 234.906 330.828 240.391 325.484 246.648C312.125 262.187 301.227 274.211 281.398 277.727C288.922 274.141 295.391 269.078 298.906 261.695C302.352 254.453 302.211 246.156 302.07 238.141C314.867 240.602 329 237.648 336.523 226.891Z" fill="#845843"/>
<path d="M310.719 32.125C282.523 37.8203 254.609 44.5 226.906 52.2344C234.289 77.2656 242.234 102.156 250.883 126.836L325.414 108.555C328.227 107.852 328.578 106.867 328.016 104.688C321.336 76.1406 315.852 52.5156 310.719 32.125Z" fill="#EAE5DB"/>
<path d="M242.656 71.0781C246.101 73.6093 249.758 75.789 253.555 77.6874C255.875 78.8124 256.719 78.2499 257.492 76.6327C262.062 66.9296 262.836 56.2421 262.203 54.4843C261.64 53.0077 259.32 53.1484 258.265 54.2734C256.297 56.4531 257.562 59.7577 253.484 71.4999C250.39 71.2187 248.14 67.6328 244.906 68.0546C243.359 68.3359 241.672 70.3749 242.656 71.0781Z" fill="#402E32"/>
<path d="M271.836 57.086C280.484 54.0625 289.273 51.461 298.203 49.2813C300.593 48.7188 303.125 48.1563 305.375 49.0703C306.359 49.4922 307.343 50.336 307.414 51.3907C307.484 52.9375 305.797 53.8516 304.39 54.4141C294.054 58.5625 283.367 61.9375 272.539 64.4688C271.836 64.6797 271.062 64.75 270.289 64.5391C269.023 64.1172 268.78 62.4839 268.953 61.0938C269.221 58.9352 270.775 57.4284 271.836 57.086Z" fill="#FFF7F2"/>
<path d="M250.531 99.1328C253.977 101.664 257.633 103.844 261.43 105.742C263.75 106.867 264.594 106.305 265.367 104.687C269.938 95.0546 270.711 84.2968 270.078 82.539C269.516 81.0624 267.195 81.2031 266.141 82.3281C264.172 84.5078 265.438 87.8124 261.359 99.5546C258.266 99.2734 256.016 95.6874 252.781 96.1093C251.305 96.3202 249.617 98.4296 250.531 99.1328Z" fill="#402E32"/>
<path d="M279.781 85.1407C288.429 82.1172 297.218 79.5157 306.148 77.336C308.539 76.7735 311.07 76.211 313.32 77.125C314.304 77.5469 315.289 78.3907 315.359 79.4453C315.429 80.9922 313.742 81.9063 312.335 82.4688C302 86.6172 291.312 89.9922 280.484 92.5235C279.781 92.7344 279.007 92.8047 278.234 92.5938C276.968 92.1719 276.584 90.5139 276.898 89.1485C277.311 87.3534 277.381 86.2875 279.781 85.1407Z" fill="#FFF7F2"/>
<path d="M78.6874 30.9297C67.6484 25.9375 54.6405 25.3047 43.4609 30.0156C34.6015 33.7422 28.6249 42.6719 26.8671 52.0937C25.1093 61.5156 25.5312 67.0703 29.328 75.8594C31.9296 81.625 35.8671 86.6875 40.789 90.625C54.6405 101.312 83.4687 98.2187 91.4843 74.1015C96.7577 58.2109 92.9609 37.4687 78.6874 30.9297Z" fill="#7AD001"/>
<path d="M54.2889 71.7109C49.5077 67.1406 44.4452 62.7812 39.1014 58.7734C38.328 58.2109 38.1874 57.0859 38.7499 56.3125C39.3124 55.539 40.4374 55.3984 41.2108 55.9609C46.203 59.7578 51.0545 63.8359 55.6249 68.1953C64.1327 62.2187 71.6561 54.9765 77.9842 46.75C78.5467 45.9765 79.6717 45.8359 80.4452 46.3984C81.2186 46.9609 81.3592 48.0859 80.7967 48.8594C73.9061 57.789 65.7499 65.5234 56.4686 71.8515C55.7655 72.3437 54.8514 72.2734 54.2889 71.7109Z" fill="#FFF7F2"/>
<path d="M339.476 38.3828C331.461 123.32 332.586 111.719 331.812 119.664C331.461 123.18 328.297 125.711 324.992 125.43C321.406 125.148 318.734 121.984 319.086 118.398C319.789 111.297 319.297 116.5 327.101 38.5234C333.992 26.0078 332.023 29.5234 335.82 22.7031C337.719 30.7891 336.875 27.3437 339.476 38.3828Z" fill="#FF605B"/>
<path d="M339.477 38.3828C336.031 40.9844 334.062 38.5938 334.062 38.5938C331.25 41.4062 327.102 38.5938 327.102 38.5938C333.992 26.0781 332.023 29.5938 335.82 22.7734C337.719 30.7891 336.875 27.3437 339.477 38.3828Z" fill="#FFAD92"/>
<path d="M332.375 113.688L331.812 119.664C331.461 122.969 328.718 125.43 325.414 125.43C321.687 125.43 318.804 122.266 319.015 118.609C319.015 118.469 319.086 117.906 319.578 112.773L332.375 113.688Z" fill="#FFC364"/>
<path d="M337.297 29.1719C335.75 29.2422 334.203 28.8906 332.797 28.1875L335.75 22.7734L337.297 29.1719Z" fill="#402E32"/>
<path d="M166.929 240.742C165.945 240.742 165.101 239.898 165.172 238.914C169.461 163.398 166.508 216.555 167.633 130.141C167.633 129.156 168.406 128.383 169.39 128.383C170.375 128.383 171.148 129.156 171.148 130.141C169.883 228.438 173.258 159.25 168.687 239.125C168.687 240.039 167.914 240.742 166.929 240.742Z" fill="#FFF7F2"/>
<path d="M268.812 246.859C267.828 246.859 267.055 246.016 267.055 245.031C267.055 244.047 266.914 251.711 268.461 178.234C87.6875 179.992 195.195 176.688 68.9844 180.133L71.1641 240.039C71.1641 241.023 70.4609 241.797 69.4766 241.867C68.4922 241.867 67.7188 241.164 67.6484 240.18L65.3984 178.516C65.3984 177.531 66.1016 176.758 67.0859 176.687C67.7891 176.687 59.3516 176.898 130.086 174.93C217.273 175.492 185.141 175.492 270.219 174.648C271.203 174.648 271.977 175.492 271.977 176.406C271.977 177.32 272.117 169.867 270.5 245.031C270.57 246.086 269.797 246.859 268.812 246.859Z" fill="#FFF7F2"/>
<path d="M193.086 87.3203C193.086 73.75 182.75 62.7109 170.023 62.7109C157.297 62.7109 146.961 73.75 146.961 87.3203C146.891 95.6875 150.969 103.562 157.93 108.273C161.094 110.805 161.164 116.43 161.164 116.43H177.687C177.617 112.211 182.187 108.273 182.187 108.273C189.078 103.562 193.226 95.6875 193.086 87.3203Z" fill="#FFB020"/>
<path d="M165.453 118.258C166.156 110.945 166.578 100.961 166.016 93.7891C164.82 93.7188 163.836 93.6485 163.344 93.6485C158.773 93.1563 157.226 87.0391 159.617 84.3672C160.672 83.3125 162.219 82.8907 163.625 83.3829C165.734 83.9454 166.859 87.6016 167.351 92.3828C168.969 92.3828 170.516 92.3125 172.133 92.1719C172.273 89.5 172.555 87.461 172.976 86.7578C175.719 81.7657 186.195 91.4688 173.469 93.4375C173.187 100.117 173.258 110.875 173.539 118.258C173.539 119.172 172.133 119.242 172.133 118.328C172.062 116.219 171.641 102.367 172.062 93.6485C170.516 93.7891 169.039 93.8594 167.492 93.8594C168.266 102.859 167.211 114.953 166.93 118.398C166.789 119.313 165.383 119.172 165.453 118.258ZM160.672 85.3516C159.125 87.1094 159.969 91.8204 163.484 92.3125C164.258 92.3829 165.101 92.4532 165.945 92.4532C165.523 88.2344 164.68 85.211 163.273 84.8594C161.867 84.2969 160.672 85.211 160.672 85.3516ZM174.172 87.5313C173.891 88.0938 173.68 89.711 173.539 92.1016C175.648 91.75 177.336 91.1172 177.969 90.2032C179.164 88.2344 175.156 85.4922 174.172 87.5313Z" fill="#FFF7F2"/>
<path d="M158.14 69.8828C152.304 75.9999 154.836 78.6718 160.812 71.7812C164.609 68.1953 161.445 66.1562 158.14 69.8828Z" fill="#FFF7F2"/>
<path d="M161.164 116.43V126.836C161.164 131.406 164.891 135.062 169.391 135.062C173.961 135.062 177.617 131.406 177.617 126.836V116.43H161.164Z" fill="#402E32"/>
<path d="M169.039 158.195L130.156 176.758L169.391 196.164L208.133 177.18L169.039 158.195Z" fill="#FF605B"/>
<path d="M136.555 219.93H194.492L191.891 262.75L136.555 264.789V219.93Z" fill="#7AD001"/>
<path d="M270.289 192.859C279.298 192.859 286.602 185.556 286.602 176.547C286.602 167.538 279.298 160.234 270.289 160.234C261.28 160.234 253.977 167.538 253.977 176.547C253.977 185.556 261.28 192.859 270.289 192.859Z" fill="#E79F79"/>
<path d="M68.2813 194.828C77.2904 194.828 84.5938 187.525 84.5938 178.516C84.5938 169.506 77.2904 162.203 68.2813 162.203C59.2721 162.203 51.9688 169.506 51.9688 178.516C51.9688 187.525 59.2721 194.828 68.2813 194.828Z" fill="#E79F79"/>
<path d="M41.8437 233.219H90.9219C93.6641 233.219 95.8438 235.398 95.8438 238.141V245.383C95.8438 248.125 93.6641 250.305 90.9219 250.305H41.8437C39.1016 250.305 36.9219 248.125 36.9219 245.383V238.141C36.9219 235.398 39.1719 233.219 41.8437 233.219Z" fill="#402E32"/>
<path d="M244.273 238.422H293.352C296.094 238.422 298.273 240.602 298.273 243.344V250.586C298.273 253.328 296.094 255.508 293.352 255.508H244.273C241.531 255.508 239.352 253.328 239.352 250.586V243.344C239.352 240.672 241.531 238.422 244.273 238.422Z" fill="#402E32"/>
</svg>
