<svg width="360" height="360" viewBox="0 0 360 360" fill="none" xmlns="http://www.w3.org/2000/svg">
<path d="M353.211 93.6211C353.108 88.1194 350.855 82.8767 346.936 79.0145C343.016 75.1524 337.741 72.9774 332.238 72.9548L25.0925 74.468C22.326 74.4783 19.5889 75.0363 17.0392 76.1099C14.4894 77.1835 12.1776 78.7514 10.2369 80.7232C8.29633 82.6949 6.76539 85.0314 5.73248 87.5979C4.69956 90.1644 4.18512 92.91 4.21884 95.6763L6.18056 266.305C6.25995 271.82 8.50124 277.084 12.4221 280.963C16.343 284.842 21.6301 287.027 27.1456 287.047L334.955 284.702C337.724 284.682 340.462 284.113 343.011 283.03C345.559 281.946 347.868 280.368 349.804 278.388C351.74 276.408 353.265 274.064 354.291 271.491C355.317 268.919 355.823 266.169 355.781 263.4L353.211 93.6211Z" fill="#E79F79"/>
<path d="M348.64 263.508C348.666 265.335 348.331 267.148 347.653 268.845C346.976 270.541 345.97 272.087 344.692 273.393C343.415 274.699 341.892 275.74 340.212 276.455C338.531 277.17 336.725 277.546 334.899 277.561L255.106 278.169L71.4686 279.57L27.2624 279.906C23.6009 279.934 20.0773 278.51 17.4637 275.946C14.8501 273.382 13.3596 269.886 13.3187 266.224L11.4203 101.305L11.3584 95.599C11.3363 93.7742 11.6757 91.9632 12.357 90.2702C13.0383 88.5773 14.048 87.036 15.328 85.7352C16.6079 84.4344 18.1327 83.3999 19.8144 82.6914C21.4961 81.9828 23.3015 81.6142 25.1263 81.6068L71.5783 81.3832L332.168 80.0937C335.814 80.0744 339.321 81.4959 341.926 84.0489C344.53 86.602 346.02 90.0801 346.073 93.7266L346.147 98.9613L348.64 263.508Z" fill="#FFF7F2"/>
<path d="M71.5783 81.3839L71.5656 100.883L71.4665 279.57L27.2603 279.906C23.5992 279.934 20.0761 278.51 17.463 275.945C14.8498 273.381 13.3596 269.885 13.3187 266.224L11.4203 101.305L11.3584 95.599C11.3363 93.7742 11.6757 91.9632 12.357 90.2702C13.0383 88.5773 14.048 87.036 15.328 85.7352C16.6079 84.4344 18.1327 83.3999 19.8144 82.6914C21.4961 81.9828 23.3015 81.6142 25.1263 81.6068L71.5783 81.3839Z" fill="#7AD001"/>
<path d="M348.641 263.508C348.666 265.335 348.331 267.148 347.653 268.845C346.976 270.541 345.97 272.087 344.692 273.393C343.415 274.699 341.893 275.74 340.212 276.455C338.531 277.17 336.725 277.546 334.899 277.561L255.106 278.169L251.744 99.6173L251.384 80.4923L332.17 80.0958C335.816 80.077 339.322 81.4985 341.926 84.051C344.529 86.6036 346.02 90.0808 346.073 93.7266L346.147 98.9613L348.641 263.508Z" fill="#A369F7"/>
<path d="M346.148 98.9606L251.744 99.6173L71.5676 100.883L11.4223 101.305L11.3604 95.599C11.3383 93.7742 11.6777 91.9632 12.359 90.2702C13.0403 88.5773 14.05 87.036 15.3299 85.7352C16.6098 84.4344 18.1346 83.3999 19.8163 82.6914C21.4981 81.9828 23.3034 81.6142 25.1283 81.6068L71.5802 81.3832L332.17 80.0937C335.816 80.0749 339.322 81.4967 341.926 84.0497C344.53 86.6027 346.02 90.0804 346.073 93.7266L346.148 98.9606Z" fill="#B2ACA3"/>
<path d="M264.955 131.036L264.727 242.056C264.724 243.332 264.976 244.595 265.468 245.772C265.96 246.949 266.682 248.016 267.592 248.91C268.502 249.804 269.581 250.507 270.766 250.978C271.952 251.45 273.219 251.68 274.494 251.655L324.125 250.682C326.65 250.632 329.054 249.587 330.813 247.775C332.572 245.962 333.543 243.528 333.517 241.002L332.363 131.73C332.337 129.234 331.337 126.846 329.576 125.076C327.815 123.306 325.433 122.293 322.937 122.252L274.689 121.479C273.42 121.459 272.16 121.69 270.981 122.161C269.802 122.632 268.729 123.333 267.823 124.222C266.918 125.111 266.198 126.172 265.705 127.341C265.213 128.511 264.958 129.767 264.955 131.036Z" fill="#A97155"/>
<path d="M272.314 182.933L325.265 183.876H325.297C325.763 183.876 326.21 183.69 326.54 183.361C326.869 183.031 327.054 182.584 327.054 182.118L327.001 138.454C326.997 138.192 326.936 137.934 326.823 137.697C326.709 137.461 326.546 137.253 326.343 137.086C326.141 136.92 325.905 136.799 325.651 136.733C325.398 136.667 325.133 136.657 324.875 136.704L271.697 137.538C271.231 137.545 270.787 137.737 270.463 138.072C270.138 138.406 269.96 138.856 269.967 139.322L270.588 181.204C270.595 181.66 270.779 182.095 271.101 182.417C271.424 182.74 271.858 182.925 272.314 182.933ZM323.532 177.301C317.147 171.14 309.557 165.795 301.679 160.012C309.026 154.112 316.297 148.145 323.49 142.111L323.532 177.301ZM321.555 180.293L276.808 179.497C284.187 173.856 291.53 168.12 298.837 162.287C306.809 168.143 315.096 173.958 321.555 180.293ZM298.746 157.864L275.754 140.989L320.191 140.291C313.125 146.203 305.977 152.06 298.746 157.86V157.864ZM295.9 160.135C288.66 165.906 281.375 171.59 274.044 177.187L273.552 143.735L295.9 160.135Z" fill="#FFB020"/>
<path d="M327.612 191.915C327.612 191.682 327.566 191.451 327.476 191.236C327.386 191.021 327.254 190.826 327.087 190.662C326.921 190.499 326.724 190.37 326.508 190.283C326.291 190.196 326.059 190.154 325.826 190.157L272.307 191.001C271.841 191.008 271.397 191.2 271.073 191.535C270.749 191.869 270.57 192.318 270.577 192.784L271.191 234.198C271.072 234.52 271.05 234.87 271.129 235.204C271.207 235.538 271.382 235.842 271.631 236.077C271.88 236.313 272.194 236.47 272.532 236.529C272.87 236.588 273.218 236.547 273.532 236.41L325.875 237.341H325.906C326.373 237.341 326.82 237.156 327.149 236.826C327.479 236.497 327.664 236.05 327.664 235.583L327.612 191.915ZM274.159 197.196L296.86 213.854C289.508 219.724 282.108 225.503 274.66 231.192L274.159 197.196ZM276.361 194.454L321.439 193.747C314.281 199.747 307.036 205.692 299.704 211.581L276.361 194.454ZM299.8 216.011C308.378 222.313 315.87 227.585 322.165 233.76L278.119 232.976C285.383 227.411 292.609 221.755 299.8 216.009V216.011ZM302.637 213.732C309.868 207.92 317.022 202.043 324.101 196.102L324.141 230.766C317.813 224.659 310.363 219.402 302.637 213.73V213.732Z" fill="#FFB020"/>
<path d="M28.8535 121.714L29.7816 127.699L58.3876 128.658L58.9979 121.905L28.8535 121.714Z" fill="#A97155"/>
<path d="M18.124 119.945L18.6865 130.977L24.4986 125.262C22.5614 123.632 20.8086 121.781 18.124 119.945Z" fill="#A369F7"/>
<path d="M28.8535 184.973L29.7816 190.958L58.3876 191.917L58.9979 185.164L28.8535 184.973Z" fill="#A97155"/>
<path d="M18.124 183.205L18.6865 194.235L24.4986 188.52C22.5614 186.891 20.8086 185.039 18.124 183.205Z" fill="#A369F7"/>
<path d="M62.9896 141.398H62.9566L28.4767 140.766C28.0106 140.757 27.567 140.564 27.2434 140.228C26.9198 139.893 26.7428 139.442 26.7513 138.976C26.7524 138.744 26.7999 138.515 26.8911 138.302C26.9822 138.089 27.1152 137.896 27.2821 137.736C27.449 137.575 27.6464 137.449 27.8627 137.366C28.079 137.282 28.3098 137.243 28.5414 137.251L63.0185 137.879C63.4847 137.883 63.9301 138.072 64.2568 138.405C64.5835 138.737 64.7646 139.186 64.7604 139.652C64.7562 140.118 64.567 140.564 64.2344 140.891C63.9018 141.217 63.453 141.398 62.9868 141.394L62.9896 141.398Z" fill="#1D1D3D"/>
<path d="M26.4087 157.099C25.9425 157.099 25.4954 156.914 25.1657 156.584C24.8361 156.255 24.6509 155.808 24.6509 155.341C24.6509 154.875 24.8361 154.428 25.1657 154.098C25.4954 153.769 25.9425 153.584 26.4087 153.584L62.6478 153.562C63.114 153.563 63.5611 153.748 63.8907 154.077C64.2204 154.407 64.4056 154.854 64.4056 155.32C64.4056 155.787 64.2204 156.234 63.8907 156.563C63.5611 156.893 63.114 157.078 62.6478 157.078L26.4087 157.099Z" fill="#00ABFE"/>
<path d="M27.9881 173.255C27.5219 173.26 27.0727 173.081 26.7391 172.755C26.4056 172.429 26.2151 171.984 26.2096 171.518C26.2041 171.052 26.384 170.602 26.7098 170.269C27.0355 169.935 27.4805 169.745 27.9467 169.739L63.0811 168.903H63.1233C63.5895 168.898 64.0388 169.078 64.3723 169.403C64.7059 169.729 64.8964 170.174 64.9019 170.64C64.9074 171.107 64.7274 171.556 64.4017 171.889C64.0759 172.223 63.631 172.413 63.1648 172.419L28.0303 173.255H27.9881Z" fill="#1D1D3D"/>
<path d="M63.2572 207.422C63.2277 207.422 63.1982 207.422 63.1686 207.422C51.6782 206.85 40.0239 206.823 28.5278 207.34C28.2969 207.351 28.0663 207.315 27.8491 207.237C27.6319 207.158 27.4323 207.037 27.2618 206.881C27.0912 206.725 26.9531 206.537 26.8552 206.328C26.7573 206.119 26.7016 205.892 26.6912 205.661C26.6809 205.43 26.7161 205.2 26.7949 204.983C26.8737 204.765 26.9945 204.566 27.1504 204.395C27.3063 204.225 27.4943 204.087 27.7036 203.989C27.9129 203.891 28.1394 203.835 28.3703 203.825C39.9754 203.302 51.7422 203.333 63.343 203.906C63.5739 203.912 63.8013 203.963 64.0124 204.056C64.2235 204.15 64.4142 204.284 64.5734 204.451C64.7327 204.619 64.8574 204.816 64.9405 205.031C65.0237 205.246 65.0636 205.476 65.0579 205.707C65.0523 205.938 65.0013 206.165 64.9077 206.376C64.8142 206.587 64.68 206.778 64.5128 206.937C64.3455 207.097 64.1486 207.221 63.9332 207.304C63.7178 207.388 63.4881 207.428 63.2572 207.422Z" fill="#1D1D3D"/>
<path d="M27.7207 225.75C27.2545 225.75 26.8074 225.565 26.4777 225.235C26.1481 224.906 25.9629 224.459 25.9629 223.992C25.9629 223.526 26.1481 223.079 26.4777 222.749C26.8074 222.42 27.2545 222.235 27.7207 222.235L63.0267 222.218C63.4929 222.218 63.94 222.403 64.2697 222.733C64.5993 223.062 64.7845 223.509 64.7845 223.976C64.7845 224.442 64.5993 224.889 64.2697 225.219C63.94 225.548 63.4929 225.733 63.0267 225.733L27.7207 225.75Z" fill="#00ABFE"/>
<path d="M65.1511 244.904H65.1462L27.9741 244.806C27.5079 244.806 27.0611 244.62 26.7319 244.29C26.4027 243.96 26.2181 243.512 26.2188 243.046C26.2194 242.58 26.4052 242.133 26.7353 241.804C27.0655 241.475 27.5128 241.29 27.979 241.291H27.9846L65.1568 241.388C65.623 241.389 66.0698 241.575 66.399 241.905C66.7282 242.235 66.9128 242.683 66.9121 243.149C66.9115 243.615 66.7256 244.062 66.3955 244.391C66.0654 244.72 65.618 244.905 65.1518 244.904H65.1511Z" fill="#00ABFE"/>
<path d="M97.7466 124.138H97.7093L79.8612 123.772C79.395 123.762 78.9516 123.568 78.6285 123.232C78.3055 122.896 78.1292 122.445 78.1385 121.979C78.1479 121.513 78.342 121.069 78.6782 120.746C79.0145 120.423 79.4653 120.247 79.9315 120.256L97.7789 120.623C98.2451 120.627 98.6904 120.817 99.0167 121.15C99.3431 121.483 99.5238 121.932 99.5192 122.398C99.5145 122.864 99.3248 123.309 98.9919 123.636C98.6589 123.962 98.21 124.143 97.7438 124.138H97.7466Z" fill="#A97155"/>
<path d="M232.722 136.187H232.706L91.1335 134.916C90.6673 134.913 90.2211 134.726 89.8929 134.395C89.5648 134.064 89.3817 133.616 89.3838 133.15C89.386 132.684 89.5732 132.237 89.9044 131.909C90.2355 131.581 90.6835 131.398 91.1497 131.4H91.1652L232.738 132.671C233.204 132.673 233.65 132.861 233.979 133.192C234.307 133.523 234.49 133.971 234.488 134.437C234.486 134.903 234.298 135.35 233.967 135.678C233.636 136.006 233.188 136.189 232.722 136.187Z" fill="#00ABFE"/>
<path d="M231.488 148.992L101.718 148.983C101.252 148.983 100.805 148.798 100.475 148.468C100.146 148.139 99.9604 147.691 99.9604 147.225C99.9604 146.759 100.146 146.312 100.475 145.982C100.805 145.653 101.252 145.467 101.718 145.467L231.488 145.477C231.954 145.477 232.401 145.662 232.731 145.991C233.06 146.321 233.246 146.768 233.246 147.234C233.246 147.701 233.06 148.148 232.731 148.477C232.401 148.807 231.954 148.992 231.488 148.992Z" fill="#A97155"/>
<path d="M79.5888 159.539C79.3568 159.569 79.1212 159.552 78.8957 159.49C78.6702 159.428 78.4595 159.321 78.2758 159.176C78.0921 159.032 77.9391 158.852 77.8258 158.647C77.7125 158.442 77.6413 158.217 77.6161 157.985C77.591 157.752 77.6125 157.517 77.6795 157.293C77.7464 157.069 77.8574 156.86 78.006 156.679C78.1545 156.499 78.3376 156.349 78.5446 156.24C78.7515 156.131 78.9782 156.065 79.2112 156.045C85.4156 155.372 91.4456 156.674 97.292 156.045C97.524 156.015 97.7596 156.031 97.9851 156.094C98.2106 156.156 98.4213 156.262 98.605 156.407C98.7888 156.552 98.9417 156.732 99.055 156.937C99.1683 157.141 99.2396 157.367 99.2647 157.599C99.2898 157.832 99.2683 158.067 99.2013 158.291C99.1344 158.515 99.0234 158.724 98.8748 158.904C98.7263 159.085 98.5432 159.234 98.3362 159.343C98.1293 159.452 97.9026 159.519 97.6696 159.539C91.5271 160.205 85.3635 158.915 79.5888 159.539Z" fill="#A97155"/>
<path d="M89.4185 169.964C88.9523 169.958 88.5077 169.767 88.1824 169.433C87.8572 169.099 87.678 168.649 87.6842 168.183C87.6905 167.717 87.8817 167.272 88.2157 166.947C88.5498 166.622 88.9994 166.442 89.4656 166.449H89.5148C100.428 166.745 111.488 166.508 122.386 165.742C122.619 165.722 122.853 165.748 123.075 165.819C123.298 165.89 123.504 166.005 123.681 166.156C123.859 166.308 124.004 166.493 124.11 166.702C124.215 166.91 124.277 167.137 124.294 167.37C124.31 167.603 124.28 167.837 124.205 168.058C124.129 168.279 124.011 168.483 123.856 168.658C123.702 168.833 123.514 168.975 123.303 169.077C123.093 169.178 122.864 169.236 122.631 169.249C111.636 170.023 100.458 170.265 89.4185 169.964Z" fill="#1D1D3D"/>
<path d="M134.431 169.36C133.965 169.347 133.523 169.149 133.203 168.81C132.883 168.472 132.71 168.02 132.723 167.554C132.742 167.09 132.942 166.652 133.279 166.333C133.616 166.014 134.064 165.839 134.528 165.845C158.384 166.506 182.566 166.218 206.4 164.99C206.633 164.976 206.865 165.007 207.085 165.083C207.305 165.159 207.508 165.278 207.681 165.432C207.855 165.587 207.996 165.775 208.097 165.984C208.197 166.194 208.255 166.422 208.267 166.654C208.279 166.886 208.245 167.119 208.166 167.337C208.088 167.556 207.967 167.758 207.81 167.929C207.653 168.101 207.464 168.24 207.253 168.338C207.043 168.436 206.814 168.492 206.582 168.501C182.667 169.734 158.378 170.023 134.431 169.36Z" fill="#FFB020"/>
<path d="M214.453 168.891C214.003 168.891 213.57 168.718 213.243 168.409C212.917 168.099 212.721 167.676 212.697 167.226C212.673 166.777 212.823 166.335 213.115 165.992C213.407 165.65 213.819 165.432 214.267 165.385C219.671 164.802 226.703 165.553 231.869 164.997C232.33 164.951 232.791 165.089 233.151 165.382C233.511 165.674 233.74 166.097 233.79 166.558C233.84 167.018 233.705 167.48 233.416 167.843C233.127 168.205 232.706 168.438 232.246 168.492C226.832 169.076 219.822 168.323 214.643 168.88C214.58 168.887 214.517 168.891 214.453 168.891Z" fill="#00ABFE"/>
<path d="M99.0051 184.629H98.9678L81.119 184.262C80.6528 184.253 80.2094 184.059 79.8863 183.723C79.5633 183.386 79.387 182.936 79.3963 182.469C79.4057 182.003 79.5998 181.56 79.9361 181.237C80.2723 180.914 80.7231 180.737 81.1893 180.747L99.0374 181.113C99.5036 181.118 99.9489 181.307 100.275 181.64C100.602 181.973 100.782 182.422 100.778 182.888C100.773 183.355 100.583 183.8 100.25 184.126C99.9174 184.453 99.4685 184.633 99.0023 184.629H99.0051Z" fill="#A97155"/>
<path d="M233.981 196.677H233.965L92.3909 195.406C91.9247 195.404 91.4784 195.217 91.1503 194.886C90.8221 194.554 90.639 194.106 90.6411 193.64C90.6433 193.174 90.8305 192.728 91.1617 192.4C91.4929 192.072 91.9408 191.888 92.407 191.891H92.4225L234 193.162C234.466 193.164 234.913 193.351 235.241 193.682C235.569 194.014 235.752 194.461 235.75 194.928C235.748 195.394 235.561 195.84 235.229 196.168C234.898 196.496 234.45 196.68 233.984 196.677H233.981Z" fill="#00ABFE"/>
<path d="M232.746 209.482L102.977 209.473C102.511 209.473 102.064 209.288 101.734 208.958C101.404 208.628 101.219 208.181 101.219 207.715C101.219 207.249 101.404 206.802 101.734 206.472C102.064 206.142 102.511 205.957 102.977 205.957L232.727 205.966C232.958 205.965 233.187 206.009 233.4 206.097C233.614 206.184 233.808 206.312 233.973 206.475C234.137 206.637 234.267 206.83 234.357 207.043C234.446 207.256 234.493 207.484 234.494 207.715C234.495 207.946 234.451 208.174 234.364 208.388C234.277 208.602 234.148 208.796 233.986 208.96C233.824 209.125 233.631 209.255 233.418 209.345C233.205 209.434 232.977 209.481 232.746 209.482Z" fill="#FFB020"/>
<path d="M80.8469 220.03C80.3849 220.078 79.9229 219.94 79.5619 219.648C79.2009 219.356 78.9702 218.932 78.9203 218.47C78.8704 218.009 79.0054 217.546 79.2956 217.183C79.5859 216.821 80.0078 216.588 80.4694 216.535C86.6653 215.864 92.715 217.168 98.5502 216.535C98.7804 216.509 99.0135 216.528 99.2361 216.593C99.4587 216.657 99.6664 216.765 99.8472 216.909C100.028 217.054 100.179 217.233 100.29 217.436C100.401 217.639 100.472 217.863 100.496 218.093C100.521 218.323 100.5 218.556 100.435 218.778C100.37 219.001 100.261 219.208 100.115 219.388C99.9692 219.568 99.7893 219.717 99.5855 219.828C99.3818 219.938 99.1583 220.007 98.9278 220.03C92.5631 220.719 86.8031 219.386 80.8469 220.03Z" fill="#A97155"/>
<path d="M90.6778 230.454C90.447 230.448 90.2196 230.396 90.0087 230.302C89.7978 230.208 89.6075 230.073 89.4487 229.906C89.128 229.567 88.9549 229.115 88.9674 228.649C88.98 228.183 89.1773 227.741 89.5158 227.42C89.8544 227.099 90.3065 226.926 90.7727 226.939C101.69 227.236 112.75 226.998 123.644 226.235C123.876 226.215 124.111 226.241 124.333 226.312C124.556 226.383 124.762 226.498 124.939 226.649C125.117 226.801 125.262 226.986 125.367 227.195C125.473 227.403 125.535 227.631 125.551 227.864C125.568 228.097 125.537 228.33 125.462 228.552C125.387 228.773 125.269 228.977 125.114 229.151C124.959 229.326 124.771 229.469 124.561 229.57C124.351 229.671 124.122 229.73 123.889 229.742C112.897 230.513 101.714 230.754 90.6778 230.454Z" fill="#1D1D3D"/>
<path d="M135.689 229.852C135.223 229.839 134.782 229.641 134.461 229.302C134.141 228.964 133.968 228.512 133.981 228.046C134 227.582 134.199 227.144 134.537 226.825C134.874 226.505 135.322 226.331 135.787 226.337C159.642 226.998 183.824 226.711 207.659 225.482C207.891 225.468 208.124 225.499 208.343 225.575C208.563 225.651 208.766 225.77 208.939 225.924C209.113 226.079 209.254 226.267 209.355 226.476C209.455 226.686 209.513 226.914 209.525 227.146C209.537 227.378 209.503 227.611 209.425 227.829C209.346 228.048 209.225 228.25 209.069 228.421C208.912 228.593 208.722 228.732 208.512 228.83C208.301 228.928 208.073 228.984 207.84 228.993C184.435 230.198 160.166 230.528 135.689 229.852Z" fill="#00ABFE"/>
<path d="M215.713 229.382C215.264 229.38 214.833 229.207 214.508 228.898C214.182 228.588 213.988 228.166 213.964 227.717C213.94 227.269 214.089 226.828 214.379 226.486C214.67 226.144 215.081 225.926 215.527 225.877C220.93 225.293 227.369 226.044 232.534 225.488C232.995 225.443 233.455 225.582 233.814 225.875C234.172 226.167 234.402 226.589 234.451 227.05C234.501 227.51 234.367 227.971 234.078 228.333C233.79 228.695 233.37 228.929 232.91 228.983C227.496 229.567 221.057 228.816 215.904 229.372C215.841 229.379 215.777 229.382 215.713 229.382Z" fill="#1D1D3D"/>
</svg>
