<svg width="360" height="360" viewBox="0 0 360 360" fill="none" xmlns="http://www.w3.org/2000/svg">
<path d="M353.039 246.937C352.125 206.367 351.211 164.391 350.578 124.664L355.781 69.539C355.781 69.4687 348.328 37.8984 348.328 37.9687C346.922 32.0625 338.906 31.0078 336.023 36.2812L325.265 55.8984L324.281 52.0312C324 50.8359 322.804 50.1328 321.609 50.3437C296.015 55.4765 273.937 60.1875 242.789 68.414C188.297 69.4687 145.758 70.3125 106.523 71.0156C102.164 62.2265 95.6248 55.4765 87.7498 51.8906C65.2498 41.625 33.3279 45.2109 21.7263 72.5625L8.99978 72.7734C6.74978 72.7734 4.92166 74.5312 4.92166 76.7812C2.67166 230.906 7.17166 324 7.03103 320.062C7.10135 323.016 9.6326 325.406 12.656 325.266C40.2888 324.281 104.976 319.008 165.164 323.508C212.906 327.094 215.929 329.555 272.742 323.648C300.445 320.766 312.539 317.109 338.765 286.523C351.703 271.336 353.461 264.516 353.039 246.937V246.937Z" fill="#E79F79"/>
<path d="M340.523 258.891C339.398 266.906 334.828 272.391 329.484 278.648C305.578 306.562 296.297 308.953 271.477 311.555C216.141 317.32 213.68 315 166.078 311.414C117.141 307.758 67.9921 310.289 18.9843 312.75C16.3124 236.391 15.8906 160.523 17.0156 84.7266C124.102 82.8984 231.047 80.8594 337.852 78.6797C338.836 201.938 341.93 247.219 340.523 258.891Z" fill="#A97155"/>
<path d="M340.523 258.891C339.398 266.906 334.828 272.391 329.484 278.648C316.125 294.187 305.227 306.211 285.398 309.727C292.922 306.141 299.391 301.078 302.906 293.695C306.352 286.453 306.211 278.156 306.07 270.141C318.867 272.602 333 269.648 340.523 258.891Z" fill="#845843"/>
<path d="M314.719 64.125C286.523 69.8203 258.609 76.5 230.906 84.2344C238.289 109.266 246.234 134.156 254.883 158.836L329.414 140.555C332.227 139.852 332.578 138.867 332.016 136.688C325.336 108.141 319.852 84.5156 314.719 64.125Z" fill="#EAE5DB"/>
<path d="M246.656 103.078C250.101 105.609 253.758 107.789 257.555 109.687C259.875 110.812 260.719 110.25 261.492 108.633C266.062 98.9296 266.836 88.2421 266.203 86.4843C265.64 85.0077 263.32 85.1484 262.265 86.2734C260.297 88.4531 261.562 91.7577 257.484 103.5C254.39 103.219 252.14 99.6328 248.906 100.055C247.359 100.336 245.672 102.375 246.656 103.078Z" fill="#402E32"/>
<path d="M275.836 89.086C284.484 86.0625 293.273 83.461 302.203 81.2813C304.593 80.7188 307.125 80.1563 309.375 81.0703C310.359 81.4922 311.343 82.336 311.414 83.3907C311.484 84.9375 309.797 85.8516 308.39 86.4141C298.054 90.5625 287.367 93.9375 276.539 96.4688C275.836 96.6797 275.062 96.75 274.289 96.5391C273.023 96.1172 272.78 94.4839 272.953 93.0938C273.221 90.9352 274.775 89.4284 275.836 89.086Z" fill="#FFF7F2"/>
<path d="M254.531 131.133C257.977 133.664 261.633 135.844 265.43 137.742C267.75 138.867 268.594 138.305 269.367 136.687C273.938 127.055 274.711 116.297 274.078 114.539C273.516 113.062 271.195 113.203 270.141 114.328C268.172 116.508 269.438 119.812 265.359 131.555C262.266 131.273 260.016 127.687 256.781 128.109C255.305 128.32 253.617 130.43 254.531 131.133Z" fill="#402E32"/>
<path d="M283.781 117.141C292.429 114.117 301.218 111.516 310.148 109.336C312.539 108.773 315.07 108.211 317.32 109.125C318.304 109.547 319.289 110.391 319.359 111.445C319.429 112.992 317.742 113.906 316.335 114.469C306 118.617 295.312 121.992 284.484 124.523C283.781 124.734 283.007 124.805 282.234 124.594C280.968 124.172 280.584 122.514 280.898 121.148C281.311 119.353 281.381 118.287 283.781 117.141Z" fill="#FFF7F2"/>
<path d="M82.6874 62.9297C71.6484 57.9375 58.6405 57.3047 47.4609 62.0156C38.6015 65.7422 32.6249 74.6719 30.8671 84.0937C29.1093 93.5156 29.5312 99.0703 33.328 107.859C35.9296 113.625 39.8671 118.687 44.789 122.625C58.6405 133.312 87.4687 130.219 95.4843 106.102C100.758 90.2109 96.9609 69.4687 82.6874 62.9297Z" fill="#7AD001"/>
<path d="M58.2889 103.711C53.5077 99.1406 48.4452 94.7812 43.1014 90.7734C42.328 90.2109 42.1874 89.0859 42.7499 88.3125C43.3124 87.539 44.4374 87.3984 45.2108 87.9609C50.203 91.7578 55.0545 95.8359 59.6249 100.195C68.1327 94.2187 75.6561 86.9765 81.9842 78.75C82.5467 77.9765 83.6717 77.8359 84.4452 78.3984C85.2186 78.9609 85.3592 80.0859 84.7967 80.8594C77.9061 89.789 69.7499 97.5234 60.4686 103.852C59.7655 104.344 58.8514 104.273 58.2889 103.711Z" fill="#FFF7F2"/>
<path d="M343.476 70.3828C335.461 155.32 336.586 143.719 335.812 151.664C335.461 155.18 332.297 157.711 328.992 157.43C325.406 157.148 322.734 153.984 323.086 150.398C323.789 143.297 323.297 148.5 331.101 70.5234C337.992 58.0078 336.023 61.5234 339.82 54.7031C341.719 62.7891 340.875 59.3437 343.476 70.3828Z" fill="#FF605B"/>
<path d="M343.477 70.3828C340.031 72.9844 338.062 70.5938 338.062 70.5938C335.25 73.4062 331.102 70.5938 331.102 70.5938C337.992 58.0781 336.023 61.5938 339.82 54.7734C341.719 62.7891 340.875 59.3437 343.477 70.3828Z" fill="#FFAD92"/>
<path d="M336.375 145.688L335.812 151.664C335.461 154.969 332.718 157.43 329.414 157.43C325.687 157.43 322.804 154.266 323.015 150.609C323.015 150.469 323.086 149.906 323.578 144.773L336.375 145.688Z" fill="#FFC364"/>
<path d="M341.297 61.1719C339.75 61.2422 338.203 60.8906 336.797 60.1875L339.75 54.7734L341.297 61.1719Z" fill="#402E32"/>
<path d="M170.929 272.742C169.945 272.742 169.101 271.898 169.172 270.914C173.461 195.398 170.508 248.555 171.633 162.141C171.633 161.156 172.406 160.383 173.39 160.383C174.375 160.383 175.148 161.156 175.148 162.141C173.883 260.438 177.258 191.25 172.687 271.125C172.687 272.039 171.914 272.742 170.929 272.742Z" fill="#FFF7F2"/>
<path d="M272.812 278.859C271.828 278.859 271.055 278.016 271.055 277.031C271.055 276.047 270.914 283.711 272.461 210.234C91.6875 211.992 199.195 208.688 72.9844 212.133L75.1641 272.039C75.1641 273.023 74.4609 273.797 73.4766 273.867C72.4922 273.867 71.7188 273.164 71.6484 272.18L69.3984 210.516C69.3984 209.531 70.1016 208.758 71.0859 208.687C71.7891 208.687 63.3516 208.898 134.086 206.93C221.273 207.492 189.141 207.492 274.219 206.648C275.203 206.648 275.977 207.492 275.977 208.406C275.977 209.32 276.117 201.867 274.5 277.031C274.57 278.086 273.797 278.859 272.812 278.859Z" fill="#FFF7F2"/>
<path d="M197.086 119.32C197.086 105.75 186.75 94.7109 174.023 94.7109C161.297 94.7109 150.961 105.75 150.961 119.32C150.891 127.687 154.969 135.562 161.93 140.273C165.094 142.805 165.164 148.43 165.164 148.43H181.687C181.617 144.211 186.187 140.273 186.187 140.273C193.078 135.562 197.226 127.687 197.086 119.32Z" fill="#FFB020"/>
<path d="M169.453 150.258C170.156 142.945 170.578 132.961 170.016 125.789C168.82 125.719 167.836 125.648 167.344 125.648C162.773 125.156 161.226 119.039 163.617 116.367C164.672 115.313 166.219 114.891 167.625 115.383C169.734 115.945 170.859 119.602 171.351 124.383C172.969 124.383 174.516 124.313 176.133 124.172C176.273 121.5 176.555 119.461 176.976 118.758C179.719 113.766 190.195 123.469 177.469 125.438C177.187 132.117 177.258 142.875 177.539 150.258C177.539 151.172 176.133 151.242 176.133 150.328C176.062 148.219 175.641 134.367 176.062 125.648C174.516 125.789 173.039 125.859 171.492 125.859C172.266 134.859 171.211 146.953 170.93 150.398C170.789 151.313 169.383 151.172 169.453 150.258ZM164.672 117.352C163.125 119.109 163.969 123.82 167.484 124.313C168.258 124.383 169.101 124.453 169.945 124.453C169.523 120.234 168.68 117.211 167.273 116.859C165.867 116.297 164.672 117.211 164.672 117.352ZM178.172 119.531C177.891 120.094 177.68 121.711 177.539 124.102C179.648 123.75 181.336 123.117 181.969 122.203C183.164 120.234 179.156 117.492 178.172 119.531Z" fill="#FFF7F2"/>
<path d="M162.14 101.883C156.304 108 158.836 110.672 164.812 103.781C168.609 100.195 165.445 98.1562 162.14 101.883Z" fill="#FFF7F2"/>
<path d="M165.164 148.43V158.836C165.164 163.406 168.891 167.062 173.391 167.062C177.961 167.062 181.617 163.406 181.617 158.836V148.43H165.164Z" fill="#402E32"/>
<path d="M173.039 190.195L134.156 208.758L173.391 228.164L212.133 209.18L173.039 190.195Z" fill="#FF605B"/>
<path d="M140.555 251.93H198.492L195.891 294.75L140.555 296.789V251.93Z" fill="#7AD001"/>
<path d="M274.289 224.859C283.298 224.859 290.602 217.556 290.602 208.547C290.602 199.538 283.298 192.234 274.289 192.234C265.28 192.234 257.977 199.538 257.977 208.547C257.977 217.556 265.28 224.859 274.289 224.859Z" fill="#E79F79"/>
<path d="M72.2813 226.828C81.2904 226.828 88.5938 219.525 88.5938 210.516C88.5938 201.506 81.2904 194.203 72.2813 194.203C63.2721 194.203 55.9688 201.506 55.9688 210.516C55.9688 219.525 63.2721 226.828 72.2813 226.828Z" fill="#E79F79"/>
<path d="M45.8437 265.219H94.9219C97.6641 265.219 99.8438 267.398 99.8438 270.141V277.383C99.8438 280.125 97.6641 282.305 94.9219 282.305H45.8437C43.1016 282.305 40.9219 280.125 40.9219 277.383V270.141C40.9219 267.398 43.1719 265.219 45.8437 265.219Z" fill="#402E32"/>
<path d="M248.273 270.422H297.352C300.094 270.422 302.273 272.602 302.273 275.344V282.586C302.273 285.328 300.094 287.508 297.352 287.508H248.273C245.531 287.508 243.352 285.328 243.352 282.586V275.344C243.352 272.672 245.531 270.422 248.273 270.422Z" fill="#402E32"/>
</svg>
