<svg width="182" height="32" viewBox="0 0 182 32" fill="none" xmlns="http://www.w3.org/2000/svg">
<path d="M2.83503 15.3483V0.162933H12.5458C16.5866 0.162933 19.3673 1.53157 20.888 4.26884C22.1914 6.39783 22.8432 9.94976 22.8432 14.9246H23.7882V22.5499H14.3381V21.6701H17.3035V14.9246H16.4562V12.1222C16.4562 8.99389 15.7502 6.99525 14.3381 6.12627C13.5343 5.67006 12.22 5.44196 10.3951 5.44196H9.09165V14.7617H9.97149V22.5499H3.61711V15.3483H2.83503ZM0 23.5275V22.5499H2.86762V23.5275H9.97149V25.6456H14.3381V23.5275H23.7882V25.6456H17.3035V31.3157H9.97149V32H2.93279C2.86762 32 2.83503 31.9674 2.83503 31.9022V23.5275H0ZM9.97149 23.5275V22.5499H14.3381V23.5275H9.97149ZM23.7882 23.5275V22.5499H30.0448V23.5275H23.7882ZM26.558 15.9348V0.293279H42.167V5.50713C42.167 5.5723 42.1344 5.60489 42.0693 5.60489H32.7821V12.4807H41.0917V12.5458C41.0917 12.7196 41.0699 13.8384 41.0265 15.9022C40.9613 15.9022 40.9287 15.9131 40.9287 15.9348H41.3198V17.5316H34.1181V24.0489H32.1955V24.7006H34.1181V26.6884H42.2648V27.4053H41.6456V31.3157H31.8697V32H27.2424V20.6273H26.558V16.6191H21.4745V15.9348H26.558ZM29.1976 15.9348H26.5906V16.6191H29.1976V15.9348ZM44.6762 0.0651731H51.4542C51.4976 0.434487 52.3557 4.58384 54.0285 12.5132H55.4297V13.7515H53.7352V12.5132H51.3564V13.7515H53.7352V19.4542H54.4847V22.4196H56.3747V18.053H57.0591V13.7515H58.3951V12.5132H57.3523C59.0251 4.58384 59.8832 0.434487 59.9267 0.0651731H66.7047C64.2498 10.7318 63.0224 16.1629 63.0224 16.3585V21.8982H61.165V23.0061H62.5662V26.2648H60.0244V32H52.1059C52.0407 32 51.8235 31.1853 51.4542 29.556H53.5071V28.22H51.2261C51.1392 28.22 50.9219 27.3618 50.5743 25.6456C50.4223 25.1242 48.4562 16.5974 44.6762 0.0651731ZM67.1935 22.6151V0H73.5479V13.1324H72.3096V26.6884H81.7923V29.5234H79.9022V30.1752H81.7923V32H75.666V31.5112H67.2587C67.2152 31.1636 67.1935 30.8921 67.1935 30.6965V23.5601H68.8228V22.6151H67.1935ZM81.7923 30.1752V29.5234H84.1059V30.1752H81.7923ZM85.9959 0.0651731H92.0244C92.0896 0.0868974 92.1222 0.130346 92.1222 0.19552V15.7067C92.1222 15.7719 92.0896 15.8045 92.0244 15.8045H91.3075V31.9022C91.3075 31.9674 91.275 32 91.2098 32H85.9959C85.9308 32 85.8982 31.9674 85.8982 31.9022V15.4134H84.3014C84.2145 15.4134 84.1711 15.3809 84.1711 15.3157V14.6314C84.1928 14.5445 84.2363 14.501 84.3014 14.501H85.8982V0.19552C85.9199 0.108622 85.9525 0.0651731 85.9959 0.0651731ZM89.0265 14.501H85.9308V15.4134H89.0265V14.501ZM93.0998 14.664V0.228106H109.035V5.50713H99.4216V13.0346H107.699L107.829 13.0998L107.764 13.2301C107.72 14.2946 107.699 14.9138 107.699 15.0876H106.786V15.1528C106.786 15.5221 106.754 16.3367 106.688 17.5967H107.536C107.536 18.205 107.492 18.5092 107.405 18.5092H101.572V19.5845H98.5092V20.1711H99.4216V22.9735H102.452V23.4623H99.4216V31.1528L99.3564 31.5112H96.0978V32H93.1976C93.1324 32 93.0998 31.9674 93.0998 31.9022V31.0876L93.1324 30.5662H94.6965V29.7515H93.0998V26.6884H93.8493V15.4786H95.1202V14.664H93.0998ZM99.3564 22.9735H96.4562V23.4623H99.3564V22.9735ZM108.155 5.40937V0.0651731H126.859V5.40937H120.668V27.4705H123.47V28.1222H120.668V30.5662H119.006V31.4134H120.179V32H114.509C114.422 32 114.379 31.9674 114.379 31.9022V5.40937H108.155ZM120.635 27.4705H118.452V28.1222H120.635V27.4705ZM127.316 0.0651731H133.312C133.377 0.0868974 133.409 0.130346 133.409 0.19552V15.7067C133.409 15.7719 133.377 15.8045 133.312 15.8045H132.595V31.9022C132.595 31.9674 132.562 32 132.497 32H127.316C127.229 32 127.185 31.9674 127.185 31.9022V15.4134H125.589C125.523 15.4134 125.491 15.3809 125.491 15.3157V14.6314C125.491 14.5445 125.523 14.501 125.589 14.501H127.185V0.19552C127.207 0.108622 127.251 0.0651731 127.316 0.0651731ZM130.314 14.501H127.251V15.4134H130.314V14.501ZM135.299 0.162933H141.817C141.904 0.162933 142.599 1.8683 143.902 5.27902C144.011 5.40937 145.38 8.76579 148.008 15.3483H149.67V0.162933H155.34V18.2485H155.992V25.2872H153.711V26.6232H155.992V30.8269H147.454V25.4827H145.955C143.913 20.5078 142.534 17.0645 141.817 15.1528V9.80856H141.002V26.1344H139.731V31.7719H134.387V19.6497H135.365V19.5845C135.321 9.09165 135.299 2.61779 135.299 0.162933ZM147.878 15.3483H144.88V16.5214H148.432C148.149 15.7393 147.965 15.3483 147.878 15.3483ZM152.31 15.3483H149.703V16.5214H148.464C149.225 18.4114 149.681 19.6388 149.833 20.2037H149.866V20.0733C149.757 18.1399 149.703 16.9559 149.703 16.5214H152.31V15.3483ZM147.454 32V31.4134H157.784V32H147.454ZM170.069 0.162933H170.134C174.892 0.162933 177.803 1.70536 178.868 4.79023C179.346 5.94162 179.585 7.56008 179.585 9.64562L174.436 10.3625L174.371 10.2322V10.1344C174.371 7.61439 173.523 6.11541 171.829 5.63748C171.308 5.50713 170.667 5.42023 169.906 5.37678C168.081 5.37678 166.908 6.36524 166.387 8.34216C166.061 9.64562 165.898 11.1881 165.898 12.9695V15.4786C165.898 18.368 165.942 20.5513 166.029 22.0285H167.332V26.4603H173.654V18.8676H169.646V14.7943H181.703V15.6741H180.139V20.3666H176.88V21.8656H178.477V30.8921H161.271V26.0692H159.283V25.6456H160.13V25.1894H161.271V23.3646H158.24V19.5194H159.674C159.652 18.3897 159.642 17.7488 159.642 17.5967C159.642 10.8405 160 6.76714 160.717 5.37678C160.934 4.48608 161.553 3.51935 162.574 2.47658C164.073 0.934148 166.572 0.162933 170.069 0.162933ZM165.703 32V31.3809H172.253V32H165.703Z" fill="#402E32"/>
</svg>
