<svg data-v-423bf9ae="" xmlns="http://www.w3.org/2000/svg" viewBox="0 0 611.419175283767 60" class="font"><!----><!----><!----><g data-v-423bf9ae="" id="2be0869a-dd94-45fc-b23f-5053885b78e2" fill="#A97155" transform="matrix(4.92206705261137,0,0,4.92206705261137,-4.134540967107341,-18.211648090945936)"><path d="M0.84 3.79L5.42 8.37L10.00 3.79L10.00 15.54C10.00 15.69 9.88 15.82 9.73 15.82L8.12 15.82C7.97 15.82 7.84 15.69 7.84 15.54L7.84 8.99L5.42 11.41L3.00 8.99L3.00 15.54C3.00 15.69 2.88 15.82 2.73 15.82L1.11 15.82C0.97 15.82 0.84 15.69 0.84 15.54ZM19.88 15.53C19.88 15.68 19.77 15.81 19.61 15.81L17.61 15.81C17.53 15.81 17.46 15.78 17.40 15.71L17.39 15.68L14 10.92L14 15.53C14 15.68 13.89 15.81 13.73 15.81L12.10 15.81C11.94 15.81 11.82 15.68 11.82 15.53L11.82 8.69L13.10 8.69L11.84 4.20L11.82 4.09L11.82 4.06C11.82 3.91 11.94 3.78 12.10 3.78L13.80 3.78C13.92 3.78 14.03 3.86 14.06 3.98L15.16 7.92L17.37 3.93C17.43 3.84 17.51 3.78 17.63 3.78L19.49 3.78C19.64 3.78 19.77 3.91 19.77 4.06C19.77 4.10 19.75 4.14 19.74 4.19L19.71 4.23L16.30 10.37L19.81 15.33L19.85 15.37C19.87 15.41 19.88 15.47 19.88 15.53ZM29.27 5.68C29.27 5.84 29.12 5.96 28.94 5.96L26.26 5.96L26.26 15.47C26.26 15.65 26.14 15.81 26.00 15.81L24.35 15.81C24.21 15.81 24.08 15.65 24.08 15.47L24.08 5.96L21.35 5.96C21.20 5.96 21.07 5.84 21.07 5.68L21.07 4.05C21.07 3.89 21.20 3.78 21.35 3.78L28.94 3.78C29.12 3.78 29.27 3.89 29.27 4.05ZM46.06 15.82L41.48 11.24L36.90 15.82L36.90 4.07C36.90 3.92 37.03 3.79 37.17 3.79L38.79 3.79C38.95 3.79 39.06 3.92 39.06 4.07L39.06 10.61L41.48 8.19L43.90 10.61L43.90 4.07C43.90 3.92 44.03 3.79 44.18 3.79L45.79 3.79C45.95 3.79 46.06 3.92 46.06 4.07ZM55.94 15.54C55.94 15.69 55.82 15.82 55.68 15.82L48.02 15.82C47.87 15.82 47.74 15.69 47.74 15.54L47.74 4.06C47.74 3.91 47.87 3.78 48.02 3.78L55.40 3.78C55.55 3.78 55.68 3.91 55.68 4.06L55.68 5.70C55.68 5.85 55.55 5.96 55.40 5.96L49.92 5.96L49.92 8.71L55.12 8.71C55.27 8.71 55.40 8.82 55.40 8.97L55.40 10.61C55.40 10.77 55.27 10.89 55.12 10.89L49.92 10.89L49.92 13.62L55.68 13.62C55.82 13.62 55.94 13.75 55.94 13.90ZM65.10 9.80C65.86 9.13 66.23 8.23 66.23 7.34C66.23 6.38 65.80 5.46 65.03 4.80C64.23 4.13 63.14 3.78 61.87 3.78L57.76 3.78C57.61 3.78 57.48 3.91 57.48 4.07L57.48 5.21L59.82 8.71L57.48 8.71L57.48 15.53C57.48 15.68 57.61 15.82 57.76 15.82L61.87 15.82C64.74 15.82 66.23 14.03 66.23 12.26C66.23 11.33 65.83 10.44 65.10 9.80ZM60.62 5.96L61.87 5.96C63.36 5.96 64.05 6.68 64.05 7.34C64.05 7.91 63.53 8.51 62.43 8.67ZM59.67 13.62L59.67 10.89L61.87 10.89C63.36 10.89 64.05 11.61 64.05 12.26C64.05 12.92 63.36 13.62 61.87 13.62ZM71.19 15.81C72.55 15.82 73.91 15.37 75.03 14.45C77.57 12.35 77.95 8.55 75.84 5.99C74.66 4.55 72.93 3.79 71.19 3.79L68.19 3.79C68.04 3.79 67.91 3.92 67.91 4.06L67.91 15.47C67.91 15.67 68.04 15.81 68.19 15.81ZM74.16 7.38C75.50 9.00 75.26 11.42 73.63 12.75C72.93 13.34 72.06 13.64 71.19 13.62L70.10 13.62L70.10 5.98L71.19 5.98C72.30 5.98 73.40 6.45 74.16 7.38ZM86.81 15.54C86.81 15.69 86.69 15.82 86.55 15.82L78.89 15.82C78.74 15.82 78.61 15.69 78.61 15.54L78.61 4.06C78.61 3.91 78.74 3.78 78.89 3.78L86.27 3.78C86.42 3.78 86.55 3.91 86.55 4.06L86.55 5.70C86.55 5.85 86.42 5.96 86.27 5.96L80.79 5.96L80.79 8.71L85.99 8.71C86.14 8.71 86.27 8.82 86.27 8.97L86.27 10.61C86.27 10.77 86.14 10.89 85.99 10.89L80.79 10.89L80.79 13.62L86.55 13.62C86.69 13.62 86.81 13.75 86.81 13.90ZM96.28 12.28C96.28 12.38 96.26 13.22 95.73 14.07C95.24 14.88 94.23 15.83 92.18 15.83C90.55 15.83 89.28 15.15 88.59 13.93C88.27 13.34 88.14 12.77 88.10 12.40C88.10 12.38 88.09 12.35 88.09 12.32C88.09 12.18 88.20 12.05 88.34 12.04L90.06 12.04C90.17 12.05 90.26 12.12 90.29 12.24L90.29 12.25C90.29 12.26 90.30 12.28 90.30 12.29C90.33 12.46 90.40 12.70 90.54 12.91C90.83 13.40 91.38 13.65 92.18 13.65C93.03 13.65 93.58 13.41 93.87 12.94C94.07 12.61 94.09 12.26 94.09 12.26C94.09 11.87 94.00 11.41 93.27 11.12C92.74 10.89 92.18 10.88 92.18 10.88C92.08 10.88 91.18 10.86 90.26 10.50C88.84 9.93 88.07 8.81 88.07 7.34C88.07 7.20 88.10 5.89 89.12 4.87C89.85 4.13 90.89 3.75 92.18 3.75C93.00 3.75 94.19 3.93 95.10 4.86C95.98 5.75 96.21 6.89 96.26 7.45L96.26 7.48C96.26 7.64 96.15 7.77 96.00 7.77L94.30 7.77C94.19 7.76 94.09 7.66 94.07 7.55L94.07 7.50C94.02 7.31 93.95 7.03 93.81 6.75C93.62 6.40 93.24 5.94 92.18 5.94C91.49 5.94 90.99 6.09 90.66 6.41C90.29 6.79 90.26 7.34 90.26 7.34C90.26 7.73 90.36 8.18 91.08 8.47C91.62 8.68 92.18 8.69 92.18 8.69C92.27 8.69 93.17 8.71 94.09 9.09C95.51 9.67 96.28 10.81 96.28 12.28ZM102.06 5.95L102.06 13.61L103.89 13.61C104.09 13.61 104.24 13.73 104.24 13.89L104.24 15.53C104.24 15.68 104.09 15.81 103.89 15.81L97.96 15.81C97.80 15.81 97.68 15.68 97.68 15.53L97.68 13.89C97.68 13.73 97.80 13.61 97.96 13.61L99.86 13.61L99.86 5.95L97.96 5.95C97.80 5.95 97.68 5.84 97.68 5.68L97.68 4.05C97.68 3.89 97.80 3.77 97.96 3.77L103.89 3.77C104.09 3.77 104.24 3.89 104.24 4.05L104.24 5.68C104.24 5.84 104.09 5.95 103.89 5.95ZM115.08 8.79C115.04 8.74 114.98 8.71 114.91 8.71L111.08 8.71C110.92 8.71 110.81 8.83 110.81 8.99L110.81 10.63C110.81 10.78 110.92 10.89 111.08 10.89L112.99 10.89L112.99 12.95C111.33 14.11 109.02 13.76 107.77 12.12C106.48 10.44 106.81 8.04 108.49 6.76C109.82 5.75 111.59 5.74 112.91 6.61C113.01 6.66 113.13 6.66 113.22 6.59L114.58 5.56C114.70 5.46 114.72 5.29 114.62 5.17C114.62 5.15 114.60 5.14 114.59 5.12L114.55 5.10C112.45 3.42 109.40 3.32 107.17 5.03C104.52 7.04 104.02 10.82 106.04 13.45C107.69 15.62 110.56 16.35 112.99 15.41C113.51 15.20 114.00 14.94 114.46 14.59C114.69 14.41 114.90 14.22 115.09 14.03L115.09 14.01C115.15 13.97 115.18 13.90 115.18 13.82L115.18 8.99C115.18 8.90 115.15 8.85 115.08 8.79ZM125.06 15.89L119.04 9.32L119.04 15.53C119.04 15.68 118.93 15.81 118.78 15.81L117.14 15.81C116.98 15.81 116.86 15.68 116.86 15.53L116.86 3.70L122.88 10.26L122.88 4.06C122.88 3.91 123.00 3.78 123.14 3.78L124.80 3.78C124.94 3.78 125.06 3.91 125.06 4.06Z"></path></g><!----><!----></svg>