<svg width="512" height="512" viewBox="0 0 512 512" fill="none" xmlns="http://www.w3.org/2000/svg">
<path d="M505.843 330.051H505.649L503.485 93.1221C503.379 84.0493 499.708 75.3826 493.263 68.9952C486.819 62.6078 478.121 59.0127 469.047 58.9871L40.3052 60.6061C31.1886 60.6526 22.4614 64.3077 16.0326 70.7719C9.6038 77.2361 5.99668 85.9833 6.00023 95.1001C6.00023 95.8671 5.97823 78.412 6.36223 366.276C6.39421 375.372 10.0153 384.087 16.4383 390.527C22.8613 396.967 31.5669 400.611 40.6622 400.667L215.926 401.386V417.47H169.037V453.013H343.3V417.47H296.418V401.715L353.543 401.949V427.527C353.543 441.58 364.288 453.012 377.494 453.012H458.843C472.049 453.012 482.794 441.58 482.794 427.527V400.569C489.611 398.212 495.517 393.777 499.68 387.887C503.843 381.997 506.053 374.949 506 367.737L505.843 330.051Z" fill="#E79F79"/>
<path d="M284.125 373.477H228.217V435.241H284.125V373.477Z" fill="#B2ACA3"/>
<path d="M331.01 429.764H181.33V440.719H331.01V429.764Z" fill="#FFF7F2"/>
<path d="M493.706 367.787L493.599 356.814L491.191 93.228C491.141 87.375 488.774 81.7802 484.609 77.6674C480.444 73.5545 474.82 71.2584 468.967 71.2811L40.3482 72.9001C34.4839 72.9226 28.868 75.2709 24.7333 79.4296C20.5986 83.5883 18.2828 89.2177 18.2942 95.0821C18.2942 95.8501 18.2712 78.389 18.6562 366.253C18.6615 372.106 20.9846 377.719 25.1176 381.864C29.2506 386.009 34.8569 388.349 40.7102 388.371L471.481 390.14C474.413 390.149 477.318 389.576 480.026 388.454C482.735 387.332 485.194 385.684 487.261 383.605C489.329 381.525 490.963 379.057 492.069 376.342C493.175 373.627 493.732 370.719 493.706 367.787Z" fill="#FFF7F2"/>
<path d="M50.7165 124.485L238.816 126.267L234.634 304.177L48.2725 302.936L50.7165 124.485Z" fill="#402E32"/>
<path d="M49.5515 209.577L80.3375 180.407C83.1271 177.764 86.4356 175.728 90.053 174.43C93.6705 173.132 97.5182 172.6 101.352 172.867C105.186 173.134 108.923 174.195 112.325 175.982C115.728 177.769 118.722 180.243 121.118 183.248L157.487 228.854L172.742 214.954C177.53 210.591 183.717 208.078 190.191 207.868C196.666 207.658 203.003 209.764 208.063 213.807L236.229 236.314L234.629 304.181L48.2725 302.936L49.5515 209.577Z" fill="#7AD001"/>
<path d="M164.175 183.72C173.193 183.72 180.503 176.41 180.503 167.392C180.503 158.374 173.193 151.064 164.175 151.064C155.157 151.064 147.847 158.374 147.847 167.392C147.847 176.41 155.157 183.72 164.175 183.72Z" fill="#FFB020"/>
<path d="M261.053 124.653L260.831 176.193L451.84 178.705L451.437 124.815L261.053 124.653Z" fill="#A97155"/>
<path d="M258.195 199.301L257.257 238.145L353.568 238.376L351.667 201.258L258.195 199.301Z" fill="#FFB020"/>
<path d="M254.009 273.37C253.346 273.37 252.71 273.107 252.242 272.638C251.773 272.169 251.509 271.533 251.509 270.87C251.509 270.207 251.773 269.571 252.242 269.102C252.71 268.634 253.346 268.37 254.009 268.37C315.137 268.37 379.196 270.5 438.28 270.142H438.295C438.958 270.14 439.595 270.402 440.065 270.869C440.535 271.336 440.801 271.972 440.803 272.635C440.805 273.298 440.543 273.934 440.076 274.405C439.608 274.875 438.973 275.14 438.31 275.142C378.991 275.5 315.273 273.37 254.009 273.37Z" fill="#B2ACA3"/>
<path d="M438.3 305.505H438.255C419.247 305.168 399.855 305.053 381.103 304.943C339.296 304.696 296.067 304.443 253.448 301.718C253.12 301.697 252.8 301.612 252.505 301.467C252.211 301.322 251.947 301.121 251.731 300.874C251.293 300.376 251.071 299.725 251.113 299.063C251.134 298.735 251.219 298.415 251.364 298.12C251.509 297.826 251.71 297.562 251.957 297.346C252.455 296.908 253.106 296.686 253.768 296.728C296.241 299.442 339.398 299.697 381.132 299.943C399.9 300.054 419.306 300.168 438.343 300.506C439.006 300.512 439.64 300.781 440.104 301.253C440.569 301.726 440.827 302.364 440.822 303.028C440.816 303.691 440.547 304.324 440.074 304.789C439.601 305.254 438.963 305.512 438.3 305.506V305.505Z" fill="#B2ACA3"/>
<path d="M493.706 367.787L493.599 342.345H18.6343L18.6563 366.253C18.6615 372.106 20.9847 377.72 25.1177 381.864C29.2506 386.009 34.8569 388.349 40.7103 388.371L471.481 390.14C474.413 390.149 477.318 389.576 480.026 388.454C482.735 387.332 485.194 385.684 487.262 383.605C489.329 381.526 490.963 379.057 492.069 376.342C493.175 373.627 493.732 370.719 493.706 367.787Z" fill="#A369F7"/>
<path d="M257.257 377.054C263.534 377.054 268.623 371.965 268.623 365.688C268.623 359.411 263.534 354.322 257.257 354.322C250.98 354.322 245.891 359.411 245.891 365.688C245.891 371.965 250.98 377.054 257.257 377.054Z" fill="#FFF7F2"/>
<path d="M470.5 257.948V427.527C470.5 434.805 465.286 440.718 458.843 440.718H377.493C371.062 440.718 365.836 434.805 365.836 427.527V257.948C365.836 250.67 371.062 244.757 377.493 244.757H458.843C465.287 244.757 470.5 250.67 470.5 257.948Z" fill="#402E32"/>
<path d="M466.591 264.29V420.254C466.591 427.326 461.365 433.054 454.933 433.054H381.405C374.974 433.054 369.748 427.33 369.748 420.254V264.29C369.748 257.218 374.974 251.49 381.405 251.49H395.626V253.983C395.626 258.169 398.726 261.568 402.536 261.568H433.8C437.613 261.568 440.709 258.168 440.709 253.983V251.49H454.93C461.365 251.493 466.591 257.218 466.591 264.29Z" fill="#FFF7F2"/>
<path d="M376.054 269.6L461.18 270.407L459.287 350.921L374.948 350.359L376.054 269.6Z" fill="#402E32"/>
<path d="M375.527 308.109L389.459 294.909C390.722 293.713 392.219 292.791 393.856 292.204C395.493 291.617 397.235 291.376 398.97 291.497C400.705 291.617 402.396 292.098 403.936 292.906C405.476 293.715 406.831 294.835 407.915 296.195L424.374 316.833L431.274 310.541C433.441 308.567 436.241 307.43 439.171 307.334C442.101 307.239 444.969 308.192 447.259 310.022L460.005 320.208L459.283 350.922L374.944 350.36L375.527 308.109Z" fill="#7AD001"/>
<path d="M427.401 296.407C431.482 296.407 434.79 293.099 434.79 289.018C434.79 284.937 431.482 281.629 427.401 281.629C423.32 281.629 420.012 284.937 420.012 289.018C420.012 293.099 423.32 296.407 427.401 296.407Z" fill="#FFB020"/>
<path d="M376.28 356.21L376.202 374.285L443.188 375.166L443.047 356.267L376.28 356.21Z" fill="#A97155"/>
<path d="M375.277 382.388L374.948 396.011L408.724 396.092L408.058 383.075L375.277 382.388Z" fill="#FFB020"/>
<path d="M377.035 409.4C376.372 409.4 375.736 409.137 375.267 408.668C374.799 408.199 374.535 407.563 374.535 406.9C374.535 406.237 374.799 405.601 375.267 405.132C375.736 404.663 376.372 404.4 377.035 404.4C398.679 404.4 421.266 405.152 442.483 405.029H442.498C442.826 405.028 443.152 405.092 443.455 405.216C443.759 405.341 444.035 405.525 444.268 405.756C444.501 405.987 444.686 406.262 444.812 406.565C444.939 406.868 445.005 407.193 445.006 407.522C445.007 407.85 444.943 408.175 444.818 408.479C444.693 408.783 444.51 409.059 444.279 409.292C444.047 409.524 443.772 409.709 443.469 409.836C443.166 409.962 442.841 410.028 442.513 410.029C421.179 410.15 398.981 409.4 377.035 409.4Z" fill="#B2ACA3"/>
<path d="M442.5 420.81H442.455C420.673 420.425 398.692 420.865 376.733 419.462C376.071 419.42 375.454 419.116 375.016 418.618C374.578 418.121 374.355 417.469 374.398 416.808C374.44 416.146 374.743 415.528 375.241 415.09C375.739 414.652 376.39 414.43 377.052 414.472C398.852 415.865 420.846 415.426 442.543 415.811C443.206 415.817 443.84 416.086 444.305 416.558C444.769 417.031 445.027 417.669 445.022 418.333C445.016 418.996 444.747 419.629 444.274 420.094C443.801 420.559 443.163 420.817 442.5 420.811V420.81Z" fill="#B2ACA3"/>
</svg>
