<svg width="512" height="512" viewBox="0 0 512 512" fill="none" xmlns="http://www.w3.org/2000/svg">
<path d="M504.816 62.5121C504.753 54.2313 501.431 46.3086 495.57 40.4584C489.71 34.6082 481.781 31.3012 473.5 31.2531L38.747 29.7531C30.4475 29.7788 22.4931 33.0766 16.61 38.9307C10.7269 44.7848 7.38979 52.7228 7.32295 61.0221C5.90595 340.338 6.00495 320.883 5.99995 321.768C5.91395 338.335 18.4 352.251 34.373 352.251L129.826 351.341L128.767 377.721H129.08L126.356 445.589L144.315 445.552L139.922 482.244L198.133 480.816L201.81 445.554C209.676 445.537 240.526 445.378 312.169 445.243L315.878 480.816L374.089 482.244L369.648 445.134L385.774 445.099L382.355 377.242L388.185 377.23L386.755 348.892L477.894 348.022C493.48 347.897 506.089 334.222 506 317.548L504.816 62.5121Z" fill="#E79F79"/>
<path d="M493.509 317.606C493.561 327.439 486.53 335.461 477.794 335.531L34.484 339.759C25.644 339.829 18.439 331.772 18.491 321.835L19.762 73.067L19.814 61.077C19.8449 56.0631 21.8621 51.2658 25.4234 47.7363C28.9848 44.2068 33.8 42.2329 38.814 42.247L473.458 43.747C478.45 43.7638 483.233 45.7519 486.766 49.2784C490.299 52.8049 492.296 57.5842 492.322 62.576L492.375 74.532L493.509 317.606Z" fill="#FFF7F2"/>
<path d="M359.972 469.403L340.252 304.659L310.014 304.128L327.163 468.598L359.972 469.403Z" fill="#A369F7"/>
<path d="M154.039 469.403L173.759 304.659L203.997 304.128L186.848 468.598L154.039 469.403Z" fill="#A369F7"/>
<path d="M492.378 74.529L19.7617 73.067L19.8137 61.077C19.8447 56.0631 21.8618 51.2658 25.4231 47.7363C28.9845 44.2068 33.7997 42.2329 38.8137 42.247L473.458 43.747C478.45 43.7638 483.233 45.7519 486.766 49.2784C490.299 52.8049 492.296 57.5842 492.322 62.576L492.378 74.529Z" fill="#B2ACA3"/>
<path d="M264.629 124.89L265.363 150.928L445.962 146.819L445.828 122.803L264.629 124.89Z" fill="#402E32"/>
<path d="M265.497 174.943L266.368 203.749L340.972 201.222L343.395 175.083L265.497 174.943Z" fill="#7AD001"/>
<path d="M265.606 235.76C264.943 235.773 264.302 235.523 263.824 235.063C263.346 234.604 263.069 233.973 263.056 233.31C263.043 232.647 263.294 232.006 263.753 231.528C264.212 231.049 264.843 230.773 265.506 230.76C331.561 228.16 398.269 229.03 463.976 228.117C464.637 228.115 465.273 228.372 465.746 228.833C466.22 229.294 466.495 229.922 466.511 230.583C466.516 230.911 466.455 231.237 466.334 231.542C466.212 231.847 466.032 232.126 465.803 232.361C465.574 232.596 465.301 232.784 464.999 232.914C464.698 233.044 464.373 233.113 464.045 233.117C398.173 234.028 331.568 233.162 265.703 235.756L265.606 235.76Z" fill="#B2ACA3"/>
<path d="M263 260.136H262.973C262.31 260.139 261.673 259.879 261.201 259.413C260.73 258.947 260.463 258.312 260.46 257.649C260.457 256.986 260.717 256.349 261.183 255.877C261.649 255.406 262.284 255.139 262.947 255.136C299.698 254.747 335.005 256.2 372.566 255.136H372.639C373.302 255.127 373.942 255.381 374.417 255.844C374.892 256.306 375.165 256.938 375.174 257.601C375.183 258.264 374.929 258.904 374.467 259.379C374.004 259.854 373.372 260.127 372.709 260.136C335.006 261.205 299.751 259.745 263 260.136Z" fill="#B2ACA3"/>
<path d="M375.05 364.767L350.878 364.819L311.462 364.889L272.271 364.958L198.363 365.097L150.21 365.184L141.77 365.202L143.719 316.631L178.037 316.805L343.237 317.658L372.682 317.815C375.806 379.762 374.869 361.184 375.05 364.767Z" fill="#A97155"/>
<path d="M178.037 316.805C168.187 332.59 158.911 348.716 150.21 365.184L141.77 365.202L143.719 316.631L178.037 316.805Z" fill="#FFB020"/>
<path d="M260.777 317.4C250.093 333.324 239.396 349.242 228.687 365.153L189.531 365.222C200.007 349.369 210.228 333.358 220.194 317.191H220.212L260.777 317.4Z" fill="#FFB020"/>
<path d="M343.238 317.658C332.638 333.391 322.046 349.135 311.462 364.889L272.271 364.958C282.591 349.278 292.65 333.442 302.447 317.45L343.238 317.658Z" fill="#FFB020"/>
<path d="M375.05 364.767L350.878 364.819C358.483 353.055 365.943 341.198 373.258 329.248L375.05 364.767Z" fill="#FFB020"/>
<path d="M372.64 432.636L348.468 432.689L309.051 432.758C309.151 432.758 173.411 433.008 147.8 433.058L139.36 433.075L141.309 384.505L175.627 384.679C375.648 385.705 177.549 384.688 300.037 385.323L340.828 385.532L370.273 385.688L370.847 397.122L372.64 432.636Z" fill="#A97155"/>
<path d="M175.627 384.675C165.777 400.459 156.501 416.585 147.8 433.054L139.36 433.071L141.309 384.501L175.627 384.675Z" fill="#FFB020"/>
<path d="M258.367 385.267C247.681 401.19 236.984 417.108 226.276 433.019L187.121 433.089C197.597 417.235 207.818 401.225 217.784 385.058H217.801L258.367 385.267Z" fill="#FFB020"/>
<path d="M340.828 385.528C330.228 401.261 319.636 417.005 309.051 432.758L269.861 432.828C280.181 417.148 290.24 401.312 300.037 385.319L340.828 385.528Z" fill="#FFB020"/>
<path d="M372.64 432.636L348.468 432.689C356.072 420.924 363.532 409.067 370.847 397.118L372.64 432.636Z" fill="#FFB020"/>
<path d="M132.012 118.422L52.0768 256.872C51.3322 258.162 50.9403 259.625 50.9404 261.115C50.9406 262.604 51.3327 264.067 52.0775 265.357C52.8222 266.647 53.8934 267.718 55.1832 268.463C56.4731 269.208 57.9363 269.6 59.4258 269.6H219.294C220.783 269.6 222.246 269.208 223.536 268.463C224.826 267.718 225.897 266.647 226.642 265.357C227.387 264.067 227.779 262.604 227.779 261.115C227.779 259.625 227.387 258.162 226.643 256.872L146.708 118.422C145.963 117.132 144.892 116.061 143.602 115.316C142.312 114.571 140.849 114.179 139.36 114.179C137.87 114.179 136.407 114.571 135.117 115.316C133.827 116.061 132.756 117.132 132.012 118.422Z" fill="#FFC269"/>
<path d="M136.845 134.416L68.3451 253.061C68.089 253.502 67.9537 254.003 67.9531 254.514C67.9525 255.024 68.0865 255.525 68.3417 255.967C68.5968 256.409 68.964 256.776 69.4062 257.03C69.8484 257.285 70.3499 257.418 70.8601 257.417H207.86C208.37 257.418 208.872 257.285 209.314 257.03C209.756 256.776 210.123 256.409 210.379 255.967C210.634 255.525 210.768 255.024 210.767 254.514C210.767 254.003 210.631 253.502 210.375 253.061L141.875 134.416C141.621 133.974 141.255 133.606 140.813 133.35C140.372 133.095 139.87 132.96 139.36 132.96C138.85 132.96 138.349 133.095 137.907 133.35C137.465 133.606 137.099 133.974 136.845 134.416Z" fill="#FFB020"/>
<path d="M131.648 223.259L121.578 184.877C121.27 183.705 121.236 182.478 121.477 181.29C121.718 180.103 122.228 178.986 122.968 178.027C123.708 177.067 124.658 176.29 125.746 175.756C126.833 175.221 128.029 174.943 129.241 174.943H148.761C149.962 174.943 151.148 175.217 152.228 175.743C153.309 176.269 154.255 177.034 154.996 177.979C155.737 178.925 156.254 180.027 156.506 181.202C156.759 182.377 156.741 183.593 156.454 184.76L147 223.142C145.041 231.117 133.733 231.2 131.648 223.259Z" fill="#C72F55"/>
<path d="M139.001 244.574C142.259 244.574 144.9 241.933 144.9 238.675C144.9 235.417 142.259 232.776 139.001 232.776C135.743 232.776 133.102 235.417 133.102 238.675C133.102 241.933 135.743 244.574 139.001 244.574Z" fill="#C72F55"/>
</svg>
